<mxfile host="65bd71144e">
    <diagram id="_8Ib1XkCEnbv-8ync1q-" name="ページ1">
        <mxGraphModel dx="1164" dy="799" grid="1" gridSize="10" guides="1" tooltips="1" connect="1" arrows="1" fold="1" page="1" pageScale="1" pageWidth="3300" pageHeight="4681" math="0" shadow="0">
            <root>
                <mxCell id="6VuhM4XT6q3mWw3kNoI1-0"/>
                <mxCell id="6VuhM4XT6q3mWw3kNoI1-1" parent="6VuhM4XT6q3mWw3kNoI1-0"/>
                <mxCell id="axgaQE1IH_umbZ5cLaG9-0" value="activites" style="shape=table;startSize=30;container=1;collapsible=0;childLayout=tableLayout;" vertex="1" parent="6VuhM4XT6q3mWw3kNoI1-1">
                    <mxGeometry x="880" y="940" width="380" height="271" as="geometry"/>
                </mxCell>
                <mxCell id="axgaQE1IH_umbZ5cLaG9-1" value="" style="shape=partialRectangle;collapsible=0;dropTarget=0;pointerEvents=0;fillColor=none;top=0;left=0;bottom=0;right=0;points=[[0,0.5],[1,0.5]];portConstraint=eastwest;" vertex="1" parent="axgaQE1IH_umbZ5cLaG9-0">
                    <mxGeometry y="30" width="380" height="30" as="geometry"/>
                </mxCell>
                <mxCell id="axgaQE1IH_umbZ5cLaG9-2" value="カラム" style="shape=partialRectangle;html=1;whiteSpace=wrap;connectable=0;overflow=hidden;fillColor=none;top=0;left=0;bottom=0;right=0;pointerEvents=1;" vertex="1" parent="axgaQE1IH_umbZ5cLaG9-1">
                    <mxGeometry width="127" height="30" as="geometry">
                        <mxRectangle width="127" height="30" as="alternateBounds"/>
                    </mxGeometry>
                </mxCell>
                <mxCell id="axgaQE1IH_umbZ5cLaG9-3" value="型" style="shape=partialRectangle;html=1;whiteSpace=wrap;connectable=0;overflow=hidden;fillColor=none;top=0;left=0;bottom=0;right=0;pointerEvents=1;" vertex="1" parent="axgaQE1IH_umbZ5cLaG9-1">
                    <mxGeometry x="127" width="126" height="30" as="geometry">
                        <mxRectangle width="126" height="30" as="alternateBounds"/>
                    </mxGeometry>
                </mxCell>
                <mxCell id="axgaQE1IH_umbZ5cLaG9-4" value="制約" style="shape=partialRectangle;html=1;whiteSpace=wrap;connectable=0;overflow=hidden;fillColor=none;top=0;left=0;bottom=0;right=0;pointerEvents=1;" vertex="1" parent="axgaQE1IH_umbZ5cLaG9-1">
                    <mxGeometry x="253" width="127" height="30" as="geometry">
                        <mxRectangle width="127" height="30" as="alternateBounds"/>
                    </mxGeometry>
                </mxCell>
                <mxCell id="axgaQE1IH_umbZ5cLaG9-5" value="" style="shape=partialRectangle;collapsible=0;dropTarget=0;pointerEvents=0;fillColor=none;top=0;left=0;bottom=0;right=0;points=[[0,0.5],[1,0.5]];portConstraint=eastwest;" vertex="1" parent="axgaQE1IH_umbZ5cLaG9-0">
                    <mxGeometry y="60" width="380" height="30" as="geometry"/>
                </mxCell>
                <mxCell id="axgaQE1IH_umbZ5cLaG9-6" value="id" style="shape=partialRectangle;html=1;whiteSpace=wrap;connectable=0;overflow=hidden;fillColor=none;top=0;left=0;bottom=0;right=0;pointerEvents=1;" vertex="1" parent="axgaQE1IH_umbZ5cLaG9-5">
                    <mxGeometry width="127" height="30" as="geometry">
                        <mxRectangle width="127" height="30" as="alternateBounds"/>
                    </mxGeometry>
                </mxCell>
                <mxCell id="axgaQE1IH_umbZ5cLaG9-7" value="int" style="shape=partialRectangle;html=1;whiteSpace=wrap;connectable=0;overflow=hidden;fillColor=none;top=0;left=0;bottom=0;right=0;pointerEvents=1;" vertex="1" parent="axgaQE1IH_umbZ5cLaG9-5">
                    <mxGeometry x="127" width="126" height="30" as="geometry">
                        <mxRectangle width="126" height="30" as="alternateBounds"/>
                    </mxGeometry>
                </mxCell>
                <mxCell id="axgaQE1IH_umbZ5cLaG9-8" value="primary" style="shape=partialRectangle;html=1;whiteSpace=wrap;connectable=0;overflow=hidden;fillColor=none;top=0;left=0;bottom=0;right=0;pointerEvents=1;" vertex="1" parent="axgaQE1IH_umbZ5cLaG9-5">
                    <mxGeometry x="253" width="127" height="30" as="geometry">
                        <mxRectangle width="127" height="30" as="alternateBounds"/>
                    </mxGeometry>
                </mxCell>
                <mxCell id="axgaQE1IH_umbZ5cLaG9-9" value="" style="shape=partialRectangle;collapsible=0;dropTarget=0;pointerEvents=0;fillColor=none;top=0;left=0;bottom=0;right=0;points=[[0,0.5],[1,0.5]];portConstraint=eastwest;" vertex="1" parent="axgaQE1IH_umbZ5cLaG9-0">
                    <mxGeometry y="90" width="380" height="30" as="geometry"/>
                </mxCell>
                <mxCell id="axgaQE1IH_umbZ5cLaG9-10" value="&lt;div style=&quot;color: rgb(212 , 212 , 212) ; background-color: rgb(30 , 30 , 30) ; font-family: &amp;#34;menlo&amp;#34; , &amp;#34;monaco&amp;#34; , &amp;#34;courier new&amp;#34; , monospace ; line-height: 18px&quot;&gt;sponsor_style_id&lt;/div&gt;" style="shape=partialRectangle;html=1;whiteSpace=wrap;connectable=0;overflow=hidden;fillColor=none;top=0;left=0;bottom=0;right=0;pointerEvents=1;" vertex="1" parent="axgaQE1IH_umbZ5cLaG9-9">
                    <mxGeometry width="127" height="30" as="geometry">
                        <mxRectangle width="127" height="30" as="alternateBounds"/>
                    </mxGeometry>
                </mxCell>
                <mxCell id="axgaQE1IH_umbZ5cLaG9-11" value="int" style="shape=partialRectangle;html=1;whiteSpace=wrap;connectable=0;overflow=hidden;fillColor=none;top=0;left=0;bottom=0;right=0;pointerEvents=1;" vertex="1" parent="axgaQE1IH_umbZ5cLaG9-9">
                    <mxGeometry x="127" width="126" height="30" as="geometry">
                        <mxRectangle width="126" height="30" as="alternateBounds"/>
                    </mxGeometry>
                </mxCell>
                <mxCell id="axgaQE1IH_umbZ5cLaG9-12" value="" style="shape=partialRectangle;html=1;whiteSpace=wrap;connectable=0;overflow=hidden;fillColor=none;top=0;left=0;bottom=0;right=0;pointerEvents=1;" vertex="1" parent="axgaQE1IH_umbZ5cLaG9-9">
                    <mxGeometry x="253" width="127" height="30" as="geometry">
                        <mxRectangle width="127" height="30" as="alternateBounds"/>
                    </mxGeometry>
                </mxCell>
                <mxCell id="axgaQE1IH_umbZ5cLaG9-13" value="" style="shape=partialRectangle;collapsible=0;dropTarget=0;pointerEvents=0;fillColor=none;top=0;left=0;bottom=0;right=0;points=[[0,0.5],[1,0.5]];portConstraint=eastwest;" vertex="1" parent="axgaQE1IH_umbZ5cLaG9-0">
                    <mxGeometry y="120" width="380" height="31" as="geometry"/>
                </mxCell>
                <mxCell id="axgaQE1IH_umbZ5cLaG9-14" value="user_id" style="shape=partialRectangle;html=1;whiteSpace=wrap;connectable=0;overflow=hidden;fillColor=none;top=0;left=0;bottom=0;right=0;pointerEvents=1;" vertex="1" parent="axgaQE1IH_umbZ5cLaG9-13">
                    <mxGeometry width="127" height="31" as="geometry">
                        <mxRectangle width="127" height="31" as="alternateBounds"/>
                    </mxGeometry>
                </mxCell>
                <mxCell id="axgaQE1IH_umbZ5cLaG9-15" value="int" style="shape=partialRectangle;html=1;whiteSpace=wrap;connectable=0;overflow=hidden;fillColor=none;top=0;left=0;bottom=0;right=0;pointerEvents=1;" vertex="1" parent="axgaQE1IH_umbZ5cLaG9-13">
                    <mxGeometry x="127" width="126" height="31" as="geometry">
                        <mxRectangle width="126" height="31" as="alternateBounds"/>
                    </mxGeometry>
                </mxCell>
                <mxCell id="axgaQE1IH_umbZ5cLaG9-16" value="" style="shape=partialRectangle;html=1;whiteSpace=wrap;connectable=0;overflow=hidden;fillColor=none;top=0;left=0;bottom=0;right=0;pointerEvents=1;" vertex="1" parent="axgaQE1IH_umbZ5cLaG9-13">
                    <mxGeometry x="253" width="127" height="31" as="geometry">
                        <mxRectangle width="127" height="31" as="alternateBounds"/>
                    </mxGeometry>
                </mxCell>
                <mxCell id="axgaQE1IH_umbZ5cLaG9-17" value="" style="shape=partialRectangle;collapsible=0;dropTarget=0;pointerEvents=0;fillColor=none;top=0;left=0;bottom=0;right=0;points=[[0,0.5],[1,0.5]];portConstraint=eastwest;" vertex="1" parent="axgaQE1IH_umbZ5cLaG9-0">
                    <mxGeometry y="151" width="380" height="30" as="geometry"/>
                </mxCell>
                <mxCell id="axgaQE1IH_umbZ5cLaG9-18" value="&lt;meta charset=&quot;utf-8&quot;&gt;&lt;div style=&quot;color: rgb(212, 212, 212); background-color: rgb(30, 30, 30); font-family: menlo, monaco, &amp;quot;courier new&amp;quot;, monospace; font-weight: normal; font-size: 12px; line-height: 18px;&quot;&gt;&lt;div&gt;&lt;span style=&quot;color: #d4d4d4&quot;&gt;is_done&lt;/span&gt;&lt;/div&gt;&lt;/div&gt;" style="shape=partialRectangle;html=1;whiteSpace=wrap;connectable=0;overflow=hidden;fillColor=none;top=0;left=0;bottom=0;right=0;pointerEvents=1;" vertex="1" parent="axgaQE1IH_umbZ5cLaG9-17">
                    <mxGeometry width="127" height="30" as="geometry">
                        <mxRectangle width="127" height="30" as="alternateBounds"/>
                    </mxGeometry>
                </mxCell>
                <mxCell id="axgaQE1IH_umbZ5cLaG9-19" value="boolean" style="shape=partialRectangle;html=1;whiteSpace=wrap;connectable=0;overflow=hidden;fillColor=none;top=0;left=0;bottom=0;right=0;pointerEvents=1;" vertex="1" parent="axgaQE1IH_umbZ5cLaG9-17">
                    <mxGeometry x="127" width="126" height="30" as="geometry">
                        <mxRectangle width="126" height="30" as="alternateBounds"/>
                    </mxGeometry>
                </mxCell>
                <mxCell id="axgaQE1IH_umbZ5cLaG9-20" value="" style="shape=partialRectangle;html=1;whiteSpace=wrap;connectable=0;overflow=hidden;fillColor=none;top=0;left=0;bottom=0;right=0;pointerEvents=1;" vertex="1" parent="axgaQE1IH_umbZ5cLaG9-17">
                    <mxGeometry x="253" width="127" height="30" as="geometry">
                        <mxRectangle width="127" height="30" as="alternateBounds"/>
                    </mxGeometry>
                </mxCell>
                <mxCell id="axgaQE1IH_umbZ5cLaG9-21" value="" style="shape=partialRectangle;collapsible=0;dropTarget=0;pointerEvents=0;fillColor=none;top=0;left=0;bottom=0;right=0;points=[[0,0.5],[1,0.5]];portConstraint=eastwest;" vertex="1" parent="axgaQE1IH_umbZ5cLaG9-0">
                    <mxGeometry y="181" width="380" height="30" as="geometry"/>
                </mxCell>
                <mxCell id="axgaQE1IH_umbZ5cLaG9-22" value="&lt;meta charset=&quot;utf-8&quot;&gt;&lt;div style=&quot;color: rgb(212, 212, 212); background-color: rgb(30, 30, 30); font-family: menlo, monaco, &amp;quot;courier new&amp;quot;, monospace; font-weight: normal; font-size: 12px; line-height: 18px;&quot;&gt;&lt;div&gt;&lt;span style=&quot;color: #d4d4d4&quot;&gt;sponsor_id&lt;/span&gt;&lt;/div&gt;&lt;/div&gt;" style="shape=partialRectangle;html=1;whiteSpace=wrap;connectable=0;overflow=hidden;fillColor=none;top=0;left=0;bottom=0;right=0;pointerEvents=1;" vertex="1" parent="axgaQE1IH_umbZ5cLaG9-21">
                    <mxGeometry width="127" height="30" as="geometry">
                        <mxRectangle width="127" height="30" as="alternateBounds"/>
                    </mxGeometry>
                </mxCell>
                <mxCell id="axgaQE1IH_umbZ5cLaG9-23" value="int" style="shape=partialRectangle;html=1;whiteSpace=wrap;connectable=0;overflow=hidden;fillColor=none;top=0;left=0;bottom=0;right=0;pointerEvents=1;" vertex="1" parent="axgaQE1IH_umbZ5cLaG9-21">
                    <mxGeometry x="127" width="126" height="30" as="geometry">
                        <mxRectangle width="126" height="30" as="alternateBounds"/>
                    </mxGeometry>
                </mxCell>
                <mxCell id="axgaQE1IH_umbZ5cLaG9-24" value="" style="shape=partialRectangle;html=1;whiteSpace=wrap;connectable=0;overflow=hidden;fillColor=none;top=0;left=0;bottom=0;right=0;pointerEvents=1;" vertex="1" parent="axgaQE1IH_umbZ5cLaG9-21">
                    <mxGeometry x="253" width="127" height="30" as="geometry">
                        <mxRectangle width="127" height="30" as="alternateBounds"/>
                    </mxGeometry>
                </mxCell>
                <mxCell id="axgaQE1IH_umbZ5cLaG9-25" value="" style="shape=partialRectangle;collapsible=0;dropTarget=0;pointerEvents=0;fillColor=none;top=0;left=0;bottom=0;right=0;points=[[0,0.5],[1,0.5]];portConstraint=eastwest;" vertex="1" parent="axgaQE1IH_umbZ5cLaG9-0">
                    <mxGeometry y="211" width="380" height="30" as="geometry"/>
                </mxCell>
                <mxCell id="axgaQE1IH_umbZ5cLaG9-26" value="&lt;div style=&quot;color: rgb(212 , 212 , 212) ; background-color: rgb(30 , 30 , 30) ; font-family: &amp;#34;menlo&amp;#34; , &amp;#34;monaco&amp;#34; , &amp;#34;courier new&amp;#34; , monospace ; line-height: 18px&quot;&gt;created_at&lt;/div&gt;" style="shape=partialRectangle;html=1;whiteSpace=wrap;connectable=0;overflow=hidden;fillColor=none;top=0;left=0;bottom=0;right=0;pointerEvents=1;" vertex="1" parent="axgaQE1IH_umbZ5cLaG9-25">
                    <mxGeometry width="127" height="30" as="geometry">
                        <mxRectangle width="127" height="30" as="alternateBounds"/>
                    </mxGeometry>
                </mxCell>
                <mxCell id="axgaQE1IH_umbZ5cLaG9-27" value="timestamp" style="shape=partialRectangle;html=1;whiteSpace=wrap;connectable=0;overflow=hidden;fillColor=none;top=0;left=0;bottom=0;right=0;pointerEvents=1;" vertex="1" parent="axgaQE1IH_umbZ5cLaG9-25">
                    <mxGeometry x="127" width="126" height="30" as="geometry">
                        <mxRectangle width="126" height="30" as="alternateBounds"/>
                    </mxGeometry>
                </mxCell>
                <mxCell id="axgaQE1IH_umbZ5cLaG9-28" value="not null" style="shape=partialRectangle;html=1;whiteSpace=wrap;connectable=0;overflow=hidden;fillColor=none;top=0;left=0;bottom=0;right=0;pointerEvents=1;" vertex="1" parent="axgaQE1IH_umbZ5cLaG9-25">
                    <mxGeometry x="253" width="127" height="30" as="geometry">
                        <mxRectangle width="127" height="30" as="alternateBounds"/>
                    </mxGeometry>
                </mxCell>
                <mxCell id="axgaQE1IH_umbZ5cLaG9-29" value="" style="shape=partialRectangle;collapsible=0;dropTarget=0;pointerEvents=0;fillColor=none;top=0;left=0;bottom=0;right=0;points=[[0,0.5],[1,0.5]];portConstraint=eastwest;" vertex="1" parent="axgaQE1IH_umbZ5cLaG9-0">
                    <mxGeometry y="241" width="380" height="30" as="geometry"/>
                </mxCell>
                <mxCell id="axgaQE1IH_umbZ5cLaG9-30" value="&lt;div style=&quot;color: rgb(212 , 212 , 212) ; background-color: rgb(30 , 30 , 30) ; font-family: &amp;#34;menlo&amp;#34; , &amp;#34;monaco&amp;#34; , &amp;#34;courier new&amp;#34; , monospace ; line-height: 18px&quot;&gt;updated_at&lt;/div&gt;" style="shape=partialRectangle;html=1;whiteSpace=wrap;connectable=0;overflow=hidden;fillColor=none;top=0;left=0;bottom=0;right=0;pointerEvents=1;" vertex="1" parent="axgaQE1IH_umbZ5cLaG9-29">
                    <mxGeometry width="127" height="30" as="geometry">
                        <mxRectangle width="127" height="30" as="alternateBounds"/>
                    </mxGeometry>
                </mxCell>
                <mxCell id="axgaQE1IH_umbZ5cLaG9-31" value="timestamp" style="shape=partialRectangle;html=1;whiteSpace=wrap;connectable=0;overflow=hidden;fillColor=none;top=0;left=0;bottom=0;right=0;pointerEvents=1;" vertex="1" parent="axgaQE1IH_umbZ5cLaG9-29">
                    <mxGeometry x="127" width="126" height="30" as="geometry">
                        <mxRectangle width="126" height="30" as="alternateBounds"/>
                    </mxGeometry>
                </mxCell>
                <mxCell id="axgaQE1IH_umbZ5cLaG9-32" value="" style="shape=partialRectangle;html=1;whiteSpace=wrap;connectable=0;overflow=hidden;fillColor=none;top=0;left=0;bottom=0;right=0;pointerEvents=1;" vertex="1" parent="axgaQE1IH_umbZ5cLaG9-29">
                    <mxGeometry x="253" width="127" height="30" as="geometry">
                        <mxRectangle width="127" height="30" as="alternateBounds"/>
                    </mxGeometry>
                </mxCell>
                <mxCell id="axgaQE1IH_umbZ5cLaG9-33" value="budgets" style="shape=table;startSize=30;container=1;collapsible=0;childLayout=tableLayout;" vertex="1" parent="6VuhM4XT6q3mWw3kNoI1-1">
                    <mxGeometry x="1870" y="870" width="360" height="248.00000000000023" as="geometry"/>
                </mxCell>
                <mxCell id="axgaQE1IH_umbZ5cLaG9-34" value="" style="shape=partialRectangle;collapsible=0;dropTarget=0;pointerEvents=0;fillColor=none;top=0;left=0;bottom=0;right=0;points=[[0,0.5],[1,0.5]];portConstraint=eastwest;" vertex="1" parent="axgaQE1IH_umbZ5cLaG9-33">
                    <mxGeometry y="30" width="360" height="31" as="geometry"/>
                </mxCell>
                <mxCell id="axgaQE1IH_umbZ5cLaG9-35" value="カラム" style="shape=partialRectangle;html=1;whiteSpace=wrap;connectable=0;overflow=hidden;fillColor=none;top=0;left=0;bottom=0;right=0;pointerEvents=1;" vertex="1" parent="axgaQE1IH_umbZ5cLaG9-34">
                    <mxGeometry width="121" height="31" as="geometry">
                        <mxRectangle width="121" height="31" as="alternateBounds"/>
                    </mxGeometry>
                </mxCell>
                <mxCell id="axgaQE1IH_umbZ5cLaG9-36" value="型" style="shape=partialRectangle;html=1;whiteSpace=wrap;connectable=0;overflow=hidden;fillColor=none;top=0;left=0;bottom=0;right=0;pointerEvents=1;" vertex="1" parent="axgaQE1IH_umbZ5cLaG9-34">
                    <mxGeometry x="121" width="118" height="31" as="geometry">
                        <mxRectangle width="118" height="31" as="alternateBounds"/>
                    </mxGeometry>
                </mxCell>
                <mxCell id="axgaQE1IH_umbZ5cLaG9-37" value="制約" style="shape=partialRectangle;html=1;whiteSpace=wrap;connectable=0;overflow=hidden;fillColor=none;top=0;left=0;bottom=0;right=0;pointerEvents=1;" vertex="1" parent="axgaQE1IH_umbZ5cLaG9-34">
                    <mxGeometry x="239" width="121" height="31" as="geometry">
                        <mxRectangle width="121" height="31" as="alternateBounds"/>
                    </mxGeometry>
                </mxCell>
                <mxCell id="axgaQE1IH_umbZ5cLaG9-38" value="" style="shape=partialRectangle;collapsible=0;dropTarget=0;pointerEvents=0;fillColor=none;top=0;left=0;bottom=0;right=0;points=[[0,0.5],[1,0.5]];portConstraint=eastwest;" vertex="1" parent="axgaQE1IH_umbZ5cLaG9-33">
                    <mxGeometry y="61" width="360" height="29" as="geometry"/>
                </mxCell>
                <mxCell id="axgaQE1IH_umbZ5cLaG9-39" value="&lt;span&gt;id&lt;/span&gt;" style="shape=partialRectangle;html=1;whiteSpace=wrap;connectable=0;overflow=hidden;fillColor=none;top=0;left=0;bottom=0;right=0;pointerEvents=1;" vertex="1" parent="axgaQE1IH_umbZ5cLaG9-38">
                    <mxGeometry width="121" height="29" as="geometry">
                        <mxRectangle width="121" height="29" as="alternateBounds"/>
                    </mxGeometry>
                </mxCell>
                <mxCell id="axgaQE1IH_umbZ5cLaG9-40" value="int" style="shape=partialRectangle;html=1;whiteSpace=wrap;connectable=0;overflow=hidden;fillColor=none;top=0;left=0;bottom=0;right=0;pointerEvents=1;" vertex="1" parent="axgaQE1IH_umbZ5cLaG9-38">
                    <mxGeometry x="121" width="118" height="29" as="geometry">
                        <mxRectangle width="118" height="29" as="alternateBounds"/>
                    </mxGeometry>
                </mxCell>
                <mxCell id="axgaQE1IH_umbZ5cLaG9-41" value="primary" style="shape=partialRectangle;html=1;whiteSpace=wrap;connectable=0;overflow=hidden;fillColor=none;top=0;left=0;bottom=0;right=0;pointerEvents=1;" vertex="1" parent="axgaQE1IH_umbZ5cLaG9-38">
                    <mxGeometry x="239" width="121" height="29" as="geometry">
                        <mxRectangle width="121" height="29" as="alternateBounds"/>
                    </mxGeometry>
                </mxCell>
                <mxCell id="axgaQE1IH_umbZ5cLaG9-42" value="" style="shape=partialRectangle;collapsible=0;dropTarget=0;pointerEvents=0;fillColor=none;top=0;left=0;bottom=0;right=0;points=[[0,0.5],[1,0.5]];portConstraint=eastwest;" vertex="1" parent="axgaQE1IH_umbZ5cLaG9-33">
                    <mxGeometry y="90" width="360" height="31" as="geometry"/>
                </mxCell>
                <mxCell id="axgaQE1IH_umbZ5cLaG9-43" value="&lt;div style=&quot;color: rgb(201 , 209 , 217) ; background-color: rgb(13 , 17 , 23) ; font-family: &amp;#34;menlo&amp;#34; , &amp;#34;monaco&amp;#34; , &amp;#34;courier new&amp;#34; , monospace ; line-height: 18px&quot;&gt;&lt;span style=&quot;color: rgb(240 , 240 , 240) ; font-family: &amp;#34;helvetica&amp;#34; ; background-color: rgb(42 , 42 , 42)&quot;&gt;price&lt;/span&gt;&lt;br&gt;&lt;/div&gt;" style="shape=partialRectangle;html=1;whiteSpace=wrap;connectable=0;overflow=hidden;fillColor=none;top=0;left=0;bottom=0;right=0;pointerEvents=1;" vertex="1" parent="axgaQE1IH_umbZ5cLaG9-42">
                    <mxGeometry width="121" height="31" as="geometry">
                        <mxRectangle width="121" height="31" as="alternateBounds"/>
                    </mxGeometry>
                </mxCell>
                <mxCell id="axgaQE1IH_umbZ5cLaG9-44" value="int" style="shape=partialRectangle;html=1;whiteSpace=wrap;connectable=0;overflow=hidden;fillColor=none;top=0;left=0;bottom=0;right=0;pointerEvents=1;" vertex="1" parent="axgaQE1IH_umbZ5cLaG9-42">
                    <mxGeometry x="121" width="118" height="31" as="geometry">
                        <mxRectangle width="118" height="31" as="alternateBounds"/>
                    </mxGeometry>
                </mxCell>
                <mxCell id="axgaQE1IH_umbZ5cLaG9-45" value="" style="shape=partialRectangle;html=1;whiteSpace=wrap;connectable=0;overflow=hidden;fillColor=none;top=0;left=0;bottom=0;right=0;pointerEvents=1;" vertex="1" parent="axgaQE1IH_umbZ5cLaG9-42">
                    <mxGeometry x="239" width="121" height="31" as="geometry">
                        <mxRectangle width="121" height="31" as="alternateBounds"/>
                    </mxGeometry>
                </mxCell>
                <mxCell id="axgaQE1IH_umbZ5cLaG9-46" value="" style="shape=partialRectangle;collapsible=0;dropTarget=0;pointerEvents=0;fillColor=none;top=0;left=0;bottom=0;right=0;points=[[0,0.5],[1,0.5]];portConstraint=eastwest;" vertex="1" parent="axgaQE1IH_umbZ5cLaG9-33">
                    <mxGeometry y="121" width="360" height="33" as="geometry"/>
                </mxCell>
                <mxCell id="axgaQE1IH_umbZ5cLaG9-47" value="&lt;div style=&quot;color: rgb(201 , 209 , 217) ; background-color: rgb(13 , 17 , 23) ; font-family: &amp;#34;menlo&amp;#34; , &amp;#34;monaco&amp;#34; , &amp;#34;courier new&amp;#34; , monospace ; line-height: 18px&quot;&gt;year_id&lt;br&gt;&lt;/div&gt;" style="shape=partialRectangle;html=1;whiteSpace=wrap;connectable=0;overflow=hidden;fillColor=none;top=0;left=0;bottom=0;right=0;pointerEvents=1;" vertex="1" parent="axgaQE1IH_umbZ5cLaG9-46">
                    <mxGeometry width="121" height="33" as="geometry">
                        <mxRectangle width="121" height="33" as="alternateBounds"/>
                    </mxGeometry>
                </mxCell>
                <mxCell id="axgaQE1IH_umbZ5cLaG9-48" value="int" style="shape=partialRectangle;html=1;whiteSpace=wrap;connectable=0;overflow=hidden;fillColor=none;top=0;left=0;bottom=0;right=0;pointerEvents=1;" vertex="1" parent="axgaQE1IH_umbZ5cLaG9-46">
                    <mxGeometry x="121" width="118" height="33" as="geometry">
                        <mxRectangle width="118" height="33" as="alternateBounds"/>
                    </mxGeometry>
                </mxCell>
                <mxCell id="axgaQE1IH_umbZ5cLaG9-49" value="" style="shape=partialRectangle;html=1;whiteSpace=wrap;connectable=0;overflow=hidden;fillColor=none;top=0;left=0;bottom=0;right=0;pointerEvents=1;" vertex="1" parent="axgaQE1IH_umbZ5cLaG9-46">
                    <mxGeometry x="239" width="121" height="33" as="geometry">
                        <mxRectangle width="121" height="33" as="alternateBounds"/>
                    </mxGeometry>
                </mxCell>
                <mxCell id="axgaQE1IH_umbZ5cLaG9-50" value="" style="shape=partialRectangle;collapsible=0;dropTarget=0;pointerEvents=0;fillColor=none;top=0;left=0;bottom=0;right=0;points=[[0,0.5],[1,0.5]];portConstraint=eastwest;" vertex="1" parent="axgaQE1IH_umbZ5cLaG9-33">
                    <mxGeometry y="154" width="360" height="31" as="geometry"/>
                </mxCell>
                <mxCell id="axgaQE1IH_umbZ5cLaG9-51" value="&lt;div style=&quot;color: rgb(201 , 209 , 217) ; background-color: rgb(13 , 17 , 23) ; font-family: &amp;#34;menlo&amp;#34; , &amp;#34;monaco&amp;#34; , &amp;#34;courier new&amp;#34; , monospace ; line-height: 18px&quot;&gt;source_id&lt;br&gt;&lt;/div&gt;" style="shape=partialRectangle;html=1;whiteSpace=wrap;connectable=0;overflow=hidden;fillColor=none;top=0;left=0;bottom=0;right=0;pointerEvents=1;" vertex="1" parent="axgaQE1IH_umbZ5cLaG9-50">
                    <mxGeometry width="121" height="31" as="geometry">
                        <mxRectangle width="121" height="31" as="alternateBounds"/>
                    </mxGeometry>
                </mxCell>
                <mxCell id="axgaQE1IH_umbZ5cLaG9-52" value="int" style="shape=partialRectangle;html=1;whiteSpace=wrap;connectable=0;overflow=hidden;fillColor=none;top=0;left=0;bottom=0;right=0;pointerEvents=1;" vertex="1" parent="axgaQE1IH_umbZ5cLaG9-50">
                    <mxGeometry x="121" width="118" height="31" as="geometry">
                        <mxRectangle width="118" height="31" as="alternateBounds"/>
                    </mxGeometry>
                </mxCell>
                <mxCell id="axgaQE1IH_umbZ5cLaG9-53" value="" style="shape=partialRectangle;html=1;whiteSpace=wrap;connectable=0;overflow=hidden;fillColor=none;top=0;left=0;bottom=0;right=0;pointerEvents=1;" vertex="1" parent="axgaQE1IH_umbZ5cLaG9-50">
                    <mxGeometry x="239" width="121" height="31" as="geometry">
                        <mxRectangle width="121" height="31" as="alternateBounds"/>
                    </mxGeometry>
                </mxCell>
                <mxCell id="axgaQE1IH_umbZ5cLaG9-54" value="" style="shape=partialRectangle;collapsible=0;dropTarget=0;pointerEvents=0;fillColor=none;top=0;left=0;bottom=0;right=0;points=[[0,0.5],[1,0.5]];portConstraint=eastwest;" vertex="1" parent="axgaQE1IH_umbZ5cLaG9-33">
                    <mxGeometry y="185" width="360" height="33" as="geometry"/>
                </mxCell>
                <mxCell id="axgaQE1IH_umbZ5cLaG9-55" value="&lt;div style=&quot;color: rgb(201 , 209 , 217) ; background-color: rgb(13 , 17 , 23) ; font-family: &amp;#34;menlo&amp;#34; , &amp;#34;monaco&amp;#34; , &amp;#34;courier new&amp;#34; , monospace ; line-height: 18px&quot;&gt;created_at&lt;br&gt;&lt;/div&gt;" style="shape=partialRectangle;html=1;whiteSpace=wrap;connectable=0;overflow=hidden;fillColor=none;top=0;left=0;bottom=0;right=0;pointerEvents=1;" vertex="1" parent="axgaQE1IH_umbZ5cLaG9-54">
                    <mxGeometry width="121" height="33" as="geometry">
                        <mxRectangle width="121" height="33" as="alternateBounds"/>
                    </mxGeometry>
                </mxCell>
                <mxCell id="axgaQE1IH_umbZ5cLaG9-56" value="timestamp" style="shape=partialRectangle;html=1;whiteSpace=wrap;connectable=0;overflow=hidden;fillColor=none;top=0;left=0;bottom=0;right=0;pointerEvents=1;" vertex="1" parent="axgaQE1IH_umbZ5cLaG9-54">
                    <mxGeometry x="121" width="118" height="33" as="geometry">
                        <mxRectangle width="118" height="33" as="alternateBounds"/>
                    </mxGeometry>
                </mxCell>
                <mxCell id="axgaQE1IH_umbZ5cLaG9-57" value="not null" style="shape=partialRectangle;html=1;whiteSpace=wrap;connectable=0;overflow=hidden;fillColor=none;top=0;left=0;bottom=0;right=0;pointerEvents=1;" vertex="1" parent="axgaQE1IH_umbZ5cLaG9-54">
                    <mxGeometry x="239" width="121" height="33" as="geometry">
                        <mxRectangle width="121" height="33" as="alternateBounds"/>
                    </mxGeometry>
                </mxCell>
                <mxCell id="axgaQE1IH_umbZ5cLaG9-58" value="" style="shape=partialRectangle;collapsible=0;dropTarget=0;pointerEvents=0;fillColor=none;top=0;left=0;bottom=0;right=0;points=[[0,0.5],[1,0.5]];portConstraint=eastwest;" vertex="1" parent="axgaQE1IH_umbZ5cLaG9-33">
                    <mxGeometry y="218" width="360" height="30" as="geometry"/>
                </mxCell>
                <mxCell id="axgaQE1IH_umbZ5cLaG9-59" value="&lt;span style=&quot;color: rgb(201 , 209 , 217) ; font-family: &amp;#34;menlo&amp;#34; , &amp;#34;monaco&amp;#34; , &amp;#34;courier new&amp;#34; , monospace ; background-color: rgb(13 , 17 , 23)&quot;&gt;updated_at&lt;/span&gt;" style="shape=partialRectangle;html=1;whiteSpace=wrap;connectable=0;overflow=hidden;fillColor=none;top=0;left=0;bottom=0;right=0;pointerEvents=1;" vertex="1" parent="axgaQE1IH_umbZ5cLaG9-58">
                    <mxGeometry width="121" height="30" as="geometry">
                        <mxRectangle width="121" height="30" as="alternateBounds"/>
                    </mxGeometry>
                </mxCell>
                <mxCell id="axgaQE1IH_umbZ5cLaG9-60" value="timestamp" style="shape=partialRectangle;html=1;whiteSpace=wrap;connectable=0;overflow=hidden;fillColor=none;top=0;left=0;bottom=0;right=0;pointerEvents=1;" vertex="1" parent="axgaQE1IH_umbZ5cLaG9-58">
                    <mxGeometry x="121" width="118" height="30" as="geometry">
                        <mxRectangle width="118" height="30" as="alternateBounds"/>
                    </mxGeometry>
                </mxCell>
                <mxCell id="axgaQE1IH_umbZ5cLaG9-61" value="not null" style="shape=partialRectangle;html=1;whiteSpace=wrap;connectable=0;overflow=hidden;fillColor=none;top=0;left=0;bottom=0;right=0;pointerEvents=1;" vertex="1" parent="axgaQE1IH_umbZ5cLaG9-58">
                    <mxGeometry x="239" width="121" height="30" as="geometry">
                        <mxRectangle width="121" height="30" as="alternateBounds"/>
                    </mxGeometry>
                </mxCell>
                <mxCell id="axgaQE1IH_umbZ5cLaG9-63" value="bureau" style="shape=table;startSize=30;container=1;collapsible=0;childLayout=tableLayout;" vertex="1" parent="6VuhM4XT6q3mWw3kNoI1-1">
                    <mxGeometry x="1920" y="1180" width="430" height="159" as="geometry"/>
                </mxCell>
                <mxCell id="axgaQE1IH_umbZ5cLaG9-64" value="" style="shape=partialRectangle;collapsible=0;dropTarget=0;pointerEvents=0;fillColor=none;top=0;left=0;bottom=0;right=0;points=[[0,0.5],[1,0.5]];portConstraint=eastwest;" vertex="1" parent="axgaQE1IH_umbZ5cLaG9-63">
                    <mxGeometry y="30" width="430" height="26" as="geometry"/>
                </mxCell>
                <mxCell id="axgaQE1IH_umbZ5cLaG9-65" value="カラム" style="shape=partialRectangle;html=1;whiteSpace=wrap;connectable=0;overflow=hidden;fillColor=none;top=0;left=0;bottom=0;right=0;pointerEvents=1;" vertex="1" parent="axgaQE1IH_umbZ5cLaG9-64">
                    <mxGeometry width="143" height="26" as="geometry">
                        <mxRectangle width="143" height="26" as="alternateBounds"/>
                    </mxGeometry>
                </mxCell>
                <mxCell id="axgaQE1IH_umbZ5cLaG9-66" value="型" style="shape=partialRectangle;html=1;whiteSpace=wrap;connectable=0;overflow=hidden;fillColor=none;top=0;left=0;bottom=0;right=0;pointerEvents=1;" vertex="1" parent="axgaQE1IH_umbZ5cLaG9-64">
                    <mxGeometry x="143" width="144" height="26" as="geometry">
                        <mxRectangle width="144" height="26" as="alternateBounds"/>
                    </mxGeometry>
                </mxCell>
                <mxCell id="axgaQE1IH_umbZ5cLaG9-67" value="制約" style="shape=partialRectangle;html=1;whiteSpace=wrap;connectable=0;overflow=hidden;fillColor=none;top=0;left=0;bottom=0;right=0;pointerEvents=1;" vertex="1" parent="axgaQE1IH_umbZ5cLaG9-64">
                    <mxGeometry x="287" width="143" height="26" as="geometry">
                        <mxRectangle width="143" height="26" as="alternateBounds"/>
                    </mxGeometry>
                </mxCell>
                <mxCell id="axgaQE1IH_umbZ5cLaG9-68" value="" style="shape=partialRectangle;collapsible=0;dropTarget=0;pointerEvents=0;fillColor=none;top=0;left=0;bottom=0;right=0;points=[[0,0.5],[1,0.5]];portConstraint=eastwest;" vertex="1" parent="axgaQE1IH_umbZ5cLaG9-63">
                    <mxGeometry y="56" width="430" height="24" as="geometry"/>
                </mxCell>
                <mxCell id="axgaQE1IH_umbZ5cLaG9-69" value="id" style="shape=partialRectangle;html=1;whiteSpace=wrap;connectable=0;overflow=hidden;fillColor=none;top=0;left=0;bottom=0;right=0;pointerEvents=1;" vertex="1" parent="axgaQE1IH_umbZ5cLaG9-68">
                    <mxGeometry width="143" height="24" as="geometry">
                        <mxRectangle width="143" height="24" as="alternateBounds"/>
                    </mxGeometry>
                </mxCell>
                <mxCell id="axgaQE1IH_umbZ5cLaG9-70" value="int" style="shape=partialRectangle;html=1;whiteSpace=wrap;connectable=0;overflow=hidden;fillColor=none;top=0;left=0;bottom=0;right=0;pointerEvents=1;" vertex="1" parent="axgaQE1IH_umbZ5cLaG9-68">
                    <mxGeometry x="143" width="144" height="24" as="geometry">
                        <mxRectangle width="144" height="24" as="alternateBounds"/>
                    </mxGeometry>
                </mxCell>
                <mxCell id="axgaQE1IH_umbZ5cLaG9-71" value="primary" style="shape=partialRectangle;html=1;whiteSpace=wrap;connectable=0;overflow=hidden;fillColor=none;top=0;left=0;bottom=0;right=0;pointerEvents=1;" vertex="1" parent="axgaQE1IH_umbZ5cLaG9-68">
                    <mxGeometry x="287" width="143" height="24" as="geometry">
                        <mxRectangle width="143" height="24" as="alternateBounds"/>
                    </mxGeometry>
                </mxCell>
                <mxCell id="axgaQE1IH_umbZ5cLaG9-72" value="" style="shape=partialRectangle;collapsible=0;dropTarget=0;pointerEvents=0;fillColor=none;top=0;left=0;bottom=0;right=0;points=[[0,0.5],[1,0.5]];portConstraint=eastwest;" vertex="1" parent="axgaQE1IH_umbZ5cLaG9-63">
                    <mxGeometry y="80" width="430" height="27" as="geometry"/>
                </mxCell>
                <mxCell id="axgaQE1IH_umbZ5cLaG9-73" value="name" style="shape=partialRectangle;html=1;whiteSpace=wrap;connectable=0;overflow=hidden;fillColor=none;top=0;left=0;bottom=0;right=0;pointerEvents=1;" vertex="1" parent="axgaQE1IH_umbZ5cLaG9-72">
                    <mxGeometry width="143" height="27" as="geometry">
                        <mxRectangle width="143" height="27" as="alternateBounds"/>
                    </mxGeometry>
                </mxCell>
                <mxCell id="axgaQE1IH_umbZ5cLaG9-74" value="string" style="shape=partialRectangle;html=1;whiteSpace=wrap;connectable=0;overflow=hidden;fillColor=none;top=0;left=0;bottom=0;right=0;pointerEvents=1;" vertex="1" parent="axgaQE1IH_umbZ5cLaG9-72">
                    <mxGeometry x="143" width="144" height="27" as="geometry">
                        <mxRectangle width="144" height="27" as="alternateBounds"/>
                    </mxGeometry>
                </mxCell>
                <mxCell id="axgaQE1IH_umbZ5cLaG9-75" value="not null" style="shape=partialRectangle;html=1;whiteSpace=wrap;connectable=0;overflow=hidden;fillColor=none;top=0;left=0;bottom=0;right=0;pointerEvents=1;" vertex="1" parent="axgaQE1IH_umbZ5cLaG9-72">
                    <mxGeometry x="287" width="143" height="27" as="geometry">
                        <mxRectangle width="143" height="27" as="alternateBounds"/>
                    </mxGeometry>
                </mxCell>
                <mxCell id="axgaQE1IH_umbZ5cLaG9-76" value="" style="shape=partialRectangle;collapsible=0;dropTarget=0;pointerEvents=0;fillColor=none;top=0;left=0;bottom=0;right=0;points=[[0,0.5],[1,0.5]];portConstraint=eastwest;" vertex="1" parent="axgaQE1IH_umbZ5cLaG9-63">
                    <mxGeometry y="107" width="430" height="26" as="geometry"/>
                </mxCell>
                <mxCell id="axgaQE1IH_umbZ5cLaG9-77" value="&lt;span style=&quot;color: rgb(201 , 209 , 217) ; font-family: &amp;#34;menlo&amp;#34; , &amp;#34;monaco&amp;#34; , &amp;#34;courier new&amp;#34; , monospace ; background-color: rgb(13 , 17 , 23)&quot;&gt;created_at&lt;/span&gt;" style="shape=partialRectangle;html=1;whiteSpace=wrap;connectable=0;overflow=hidden;fillColor=none;top=0;left=0;bottom=0;right=0;pointerEvents=1;" vertex="1" parent="axgaQE1IH_umbZ5cLaG9-76">
                    <mxGeometry width="143" height="26" as="geometry">
                        <mxRectangle width="143" height="26" as="alternateBounds"/>
                    </mxGeometry>
                </mxCell>
                <mxCell id="axgaQE1IH_umbZ5cLaG9-78" value="timestamp" style="shape=partialRectangle;html=1;whiteSpace=wrap;connectable=0;overflow=hidden;fillColor=none;top=0;left=0;bottom=0;right=0;pointerEvents=1;" vertex="1" parent="axgaQE1IH_umbZ5cLaG9-76">
                    <mxGeometry x="143" width="144" height="26" as="geometry">
                        <mxRectangle width="144" height="26" as="alternateBounds"/>
                    </mxGeometry>
                </mxCell>
                <mxCell id="axgaQE1IH_umbZ5cLaG9-79" value="not null" style="shape=partialRectangle;html=1;whiteSpace=wrap;connectable=0;overflow=hidden;fillColor=none;top=0;left=0;bottom=0;right=0;pointerEvents=1;" vertex="1" parent="axgaQE1IH_umbZ5cLaG9-76">
                    <mxGeometry x="287" width="143" height="26" as="geometry">
                        <mxRectangle width="143" height="26" as="alternateBounds"/>
                    </mxGeometry>
                </mxCell>
                <mxCell id="axgaQE1IH_umbZ5cLaG9-80" value="" style="shape=partialRectangle;collapsible=0;dropTarget=0;pointerEvents=0;fillColor=none;top=0;left=0;bottom=0;right=0;points=[[0,0.5],[1,0.5]];portConstraint=eastwest;" vertex="1" parent="axgaQE1IH_umbZ5cLaG9-63">
                    <mxGeometry y="133" width="430" height="26" as="geometry"/>
                </mxCell>
                <mxCell id="axgaQE1IH_umbZ5cLaG9-81" value="&lt;span style=&quot;color: rgb(201 , 209 , 217) ; font-family: &amp;#34;menlo&amp;#34; , &amp;#34;monaco&amp;#34; , &amp;#34;courier new&amp;#34; , monospace ; background-color: rgb(13 , 17 , 23)&quot;&gt;updated_at&lt;/span&gt;" style="shape=partialRectangle;html=1;whiteSpace=wrap;connectable=0;overflow=hidden;fillColor=none;top=0;left=0;bottom=0;right=0;pointerEvents=1;" vertex="1" parent="axgaQE1IH_umbZ5cLaG9-80">
                    <mxGeometry width="143" height="26" as="geometry">
                        <mxRectangle width="143" height="26" as="alternateBounds"/>
                    </mxGeometry>
                </mxCell>
                <mxCell id="axgaQE1IH_umbZ5cLaG9-82" value="timestamp" style="shape=partialRectangle;html=1;whiteSpace=wrap;connectable=0;overflow=hidden;fillColor=none;top=0;left=0;bottom=0;right=0;pointerEvents=1;" vertex="1" parent="axgaQE1IH_umbZ5cLaG9-80">
                    <mxGeometry x="143" width="144" height="26" as="geometry">
                        <mxRectangle width="144" height="26" as="alternateBounds"/>
                    </mxGeometry>
                </mxCell>
                <mxCell id="axgaQE1IH_umbZ5cLaG9-83" value="not null" style="shape=partialRectangle;html=1;whiteSpace=wrap;connectable=0;overflow=hidden;fillColor=none;top=0;left=0;bottom=0;right=0;pointerEvents=1;" vertex="1" parent="axgaQE1IH_umbZ5cLaG9-80">
                    <mxGeometry x="287" width="143" height="26" as="geometry">
                        <mxRectangle width="143" height="26" as="alternateBounds"/>
                    </mxGeometry>
                </mxCell>
                <mxCell id="axgaQE1IH_umbZ5cLaG9-126" value="users" style="shape=table;startSize=30;container=1;collapsible=0;childLayout=tableLayout;" vertex="1" parent="6VuhM4XT6q3mWw3kNoI1-1">
                    <mxGeometry x="1410" y="1170" width="380" height="230" as="geometry"/>
                </mxCell>
                <mxCell id="axgaQE1IH_umbZ5cLaG9-127" value="" style="shape=partialRectangle;collapsible=0;dropTarget=0;pointerEvents=0;fillColor=none;top=0;left=0;bottom=0;right=0;points=[[0,0.5],[1,0.5]];portConstraint=eastwest;" vertex="1" parent="axgaQE1IH_umbZ5cLaG9-126">
                    <mxGeometry y="30" width="380" height="29" as="geometry"/>
                </mxCell>
                <mxCell id="axgaQE1IH_umbZ5cLaG9-128" value="カラム" style="shape=partialRectangle;html=1;whiteSpace=wrap;connectable=0;overflow=hidden;fillColor=none;top=0;left=0;bottom=0;right=0;pointerEvents=1;" vertex="1" parent="axgaQE1IH_umbZ5cLaG9-127">
                    <mxGeometry width="116" height="29" as="geometry">
                        <mxRectangle width="116" height="29" as="alternateBounds"/>
                    </mxGeometry>
                </mxCell>
                <mxCell id="axgaQE1IH_umbZ5cLaG9-129" value="型" style="shape=partialRectangle;html=1;whiteSpace=wrap;connectable=0;overflow=hidden;fillColor=none;top=0;left=0;bottom=0;right=0;pointerEvents=1;" vertex="1" parent="axgaQE1IH_umbZ5cLaG9-127">
                    <mxGeometry x="116" width="118" height="29" as="geometry">
                        <mxRectangle width="118" height="29" as="alternateBounds"/>
                    </mxGeometry>
                </mxCell>
                <mxCell id="axgaQE1IH_umbZ5cLaG9-130" value="制約" style="shape=partialRectangle;html=1;whiteSpace=wrap;connectable=0;overflow=hidden;fillColor=none;top=0;left=0;bottom=0;right=0;pointerEvents=1;" vertex="1" parent="axgaQE1IH_umbZ5cLaG9-127">
                    <mxGeometry x="234" width="146" height="29" as="geometry">
                        <mxRectangle width="146" height="29" as="alternateBounds"/>
                    </mxGeometry>
                </mxCell>
                <mxCell id="axgaQE1IH_umbZ5cLaG9-131" value="" style="shape=partialRectangle;collapsible=0;dropTarget=0;pointerEvents=0;fillColor=none;top=0;left=0;bottom=0;right=0;points=[[0,0.5],[1,0.5]];portConstraint=eastwest;" vertex="1" parent="axgaQE1IH_umbZ5cLaG9-126">
                    <mxGeometry y="59" width="380" height="28" as="geometry"/>
                </mxCell>
                <mxCell id="axgaQE1IH_umbZ5cLaG9-132" value="id" style="shape=partialRectangle;html=1;whiteSpace=wrap;connectable=0;overflow=hidden;fillColor=none;top=0;left=0;bottom=0;right=0;pointerEvents=1;" vertex="1" parent="axgaQE1IH_umbZ5cLaG9-131">
                    <mxGeometry width="116" height="28" as="geometry">
                        <mxRectangle width="116" height="28" as="alternateBounds"/>
                    </mxGeometry>
                </mxCell>
                <mxCell id="axgaQE1IH_umbZ5cLaG9-133" value="int" style="shape=partialRectangle;html=1;whiteSpace=wrap;connectable=0;overflow=hidden;fillColor=none;top=0;left=0;bottom=0;right=0;pointerEvents=1;" vertex="1" parent="axgaQE1IH_umbZ5cLaG9-131">
                    <mxGeometry x="116" width="118" height="28" as="geometry">
                        <mxRectangle width="118" height="28" as="alternateBounds"/>
                    </mxGeometry>
                </mxCell>
                <mxCell id="axgaQE1IH_umbZ5cLaG9-134" value="primary" style="shape=partialRectangle;html=1;whiteSpace=wrap;connectable=0;overflow=hidden;fillColor=none;top=0;left=0;bottom=0;right=0;pointerEvents=1;" vertex="1" parent="axgaQE1IH_umbZ5cLaG9-131">
                    <mxGeometry x="234" width="146" height="28" as="geometry">
                        <mxRectangle width="146" height="28" as="alternateBounds"/>
                    </mxGeometry>
                </mxCell>
                <mxCell id="axgaQE1IH_umbZ5cLaG9-135" value="" style="shape=partialRectangle;collapsible=0;dropTarget=0;pointerEvents=0;fillColor=none;top=0;left=0;bottom=0;right=0;points=[[0,0.5],[1,0.5]];portConstraint=eastwest;" vertex="1" parent="axgaQE1IH_umbZ5cLaG9-126">
                    <mxGeometry y="87" width="380" height="29" as="geometry"/>
                </mxCell>
                <mxCell id="axgaQE1IH_umbZ5cLaG9-136" value="name" style="shape=partialRectangle;html=1;whiteSpace=wrap;connectable=0;overflow=hidden;fillColor=none;top=0;left=0;bottom=0;right=0;pointerEvents=1;" vertex="1" parent="axgaQE1IH_umbZ5cLaG9-135">
                    <mxGeometry width="116" height="29" as="geometry">
                        <mxRectangle width="116" height="29" as="alternateBounds"/>
                    </mxGeometry>
                </mxCell>
                <mxCell id="axgaQE1IH_umbZ5cLaG9-137" value="string" style="shape=partialRectangle;html=1;whiteSpace=wrap;connectable=0;overflow=hidden;fillColor=none;top=0;left=0;bottom=0;right=0;pointerEvents=1;" vertex="1" parent="axgaQE1IH_umbZ5cLaG9-135">
                    <mxGeometry x="116" width="118" height="29" as="geometry">
                        <mxRectangle width="118" height="29" as="alternateBounds"/>
                    </mxGeometry>
                </mxCell>
                <mxCell id="axgaQE1IH_umbZ5cLaG9-138" value="not null&amp;nbsp;" style="shape=partialRectangle;html=1;whiteSpace=wrap;connectable=0;overflow=hidden;fillColor=none;top=0;left=0;bottom=0;right=0;pointerEvents=1;" vertex="1" parent="axgaQE1IH_umbZ5cLaG9-135">
                    <mxGeometry x="234" width="146" height="29" as="geometry">
                        <mxRectangle width="146" height="29" as="alternateBounds"/>
                    </mxGeometry>
                </mxCell>
                <mxCell id="axgaQE1IH_umbZ5cLaG9-139" value="" style="shape=partialRectangle;collapsible=0;dropTarget=0;pointerEvents=0;fillColor=none;top=0;left=0;bottom=0;right=0;points=[[0,0.5],[1,0.5]];portConstraint=eastwest;" vertex="1" parent="axgaQE1IH_umbZ5cLaG9-126">
                    <mxGeometry y="116" width="380" height="28" as="geometry"/>
                </mxCell>
                <mxCell id="axgaQE1IH_umbZ5cLaG9-140" value="bureau_id" style="shape=partialRectangle;html=1;whiteSpace=wrap;connectable=0;overflow=hidden;fillColor=none;top=0;left=0;bottom=0;right=0;pointerEvents=1;" vertex="1" parent="axgaQE1IH_umbZ5cLaG9-139">
                    <mxGeometry width="116" height="28" as="geometry">
                        <mxRectangle width="116" height="28" as="alternateBounds"/>
                    </mxGeometry>
                </mxCell>
                <mxCell id="axgaQE1IH_umbZ5cLaG9-141" value="int" style="shape=partialRectangle;html=1;whiteSpace=wrap;connectable=0;overflow=hidden;fillColor=none;top=0;left=0;bottom=0;right=0;pointerEvents=1;" vertex="1" parent="axgaQE1IH_umbZ5cLaG9-139">
                    <mxGeometry x="116" width="118" height="28" as="geometry">
                        <mxRectangle width="118" height="28" as="alternateBounds"/>
                    </mxGeometry>
                </mxCell>
                <mxCell id="axgaQE1IH_umbZ5cLaG9-142" value="not null" style="shape=partialRectangle;html=1;whiteSpace=wrap;connectable=0;overflow=hidden;fillColor=none;top=0;left=0;bottom=0;right=0;pointerEvents=1;" vertex="1" parent="axgaQE1IH_umbZ5cLaG9-139">
                    <mxGeometry x="234" width="146" height="28" as="geometry">
                        <mxRectangle width="146" height="28" as="alternateBounds"/>
                    </mxGeometry>
                </mxCell>
                <mxCell id="axgaQE1IH_umbZ5cLaG9-143" value="" style="shape=partialRectangle;collapsible=0;dropTarget=0;pointerEvents=0;fillColor=none;top=0;left=0;bottom=0;right=0;points=[[0,0.5],[1,0.5]];portConstraint=eastwest;" vertex="1" parent="axgaQE1IH_umbZ5cLaG9-126">
                    <mxGeometry y="144" width="380" height="29" as="geometry"/>
                </mxCell>
                <mxCell id="axgaQE1IH_umbZ5cLaG9-144" value="role_id" style="shape=partialRectangle;html=1;whiteSpace=wrap;connectable=0;overflow=hidden;fillColor=none;top=0;left=0;bottom=0;right=0;pointerEvents=1;" vertex="1" parent="axgaQE1IH_umbZ5cLaG9-143">
                    <mxGeometry width="116" height="29" as="geometry">
                        <mxRectangle width="116" height="29" as="alternateBounds"/>
                    </mxGeometry>
                </mxCell>
                <mxCell id="axgaQE1IH_umbZ5cLaG9-145" value="int" style="shape=partialRectangle;html=1;whiteSpace=wrap;connectable=0;overflow=hidden;fillColor=none;top=0;left=0;bottom=0;right=0;pointerEvents=1;" vertex="1" parent="axgaQE1IH_umbZ5cLaG9-143">
                    <mxGeometry x="116" width="118" height="29" as="geometry">
                        <mxRectangle width="118" height="29" as="alternateBounds"/>
                    </mxGeometry>
                </mxCell>
                <mxCell id="axgaQE1IH_umbZ5cLaG9-146" value="&lt;span&gt;not null&lt;/span&gt;" style="shape=partialRectangle;html=1;whiteSpace=wrap;connectable=0;overflow=hidden;fillColor=none;top=0;left=0;bottom=0;right=0;pointerEvents=1;" vertex="1" parent="axgaQE1IH_umbZ5cLaG9-143">
                    <mxGeometry x="234" width="146" height="29" as="geometry">
                        <mxRectangle width="146" height="29" as="alternateBounds"/>
                    </mxGeometry>
                </mxCell>
                <mxCell id="axgaQE1IH_umbZ5cLaG9-147" value="" style="shape=partialRectangle;collapsible=0;dropTarget=0;pointerEvents=0;fillColor=none;top=0;left=0;bottom=0;right=0;points=[[0,0.5],[1,0.5]];portConstraint=eastwest;" vertex="1" parent="axgaQE1IH_umbZ5cLaG9-126">
                    <mxGeometry y="173" width="380" height="28" as="geometry"/>
                </mxCell>
                <mxCell id="axgaQE1IH_umbZ5cLaG9-148" value="&lt;span style=&quot;color: rgb(201 , 209 , 217) ; font-family: &amp;#34;menlo&amp;#34; , &amp;#34;monaco&amp;#34; , &amp;#34;courier new&amp;#34; , monospace ; background-color: rgb(13 , 17 , 23)&quot;&gt;created_at&lt;/span&gt;" style="shape=partialRectangle;html=1;whiteSpace=wrap;connectable=0;overflow=hidden;fillColor=none;top=0;left=0;bottom=0;right=0;pointerEvents=1;" vertex="1" parent="axgaQE1IH_umbZ5cLaG9-147">
                    <mxGeometry width="116" height="28" as="geometry">
                        <mxRectangle width="116" height="28" as="alternateBounds"/>
                    </mxGeometry>
                </mxCell>
                <mxCell id="axgaQE1IH_umbZ5cLaG9-149" value="&lt;span&gt;timestamp&lt;/span&gt;" style="shape=partialRectangle;html=1;whiteSpace=wrap;connectable=0;overflow=hidden;fillColor=none;top=0;left=0;bottom=0;right=0;pointerEvents=1;" vertex="1" parent="axgaQE1IH_umbZ5cLaG9-147">
                    <mxGeometry x="116" width="118" height="28" as="geometry">
                        <mxRectangle width="118" height="28" as="alternateBounds"/>
                    </mxGeometry>
                </mxCell>
                <mxCell id="axgaQE1IH_umbZ5cLaG9-150" value="&lt;span&gt;not null&lt;/span&gt;" style="shape=partialRectangle;html=1;whiteSpace=wrap;connectable=0;overflow=hidden;fillColor=none;top=0;left=0;bottom=0;right=0;pointerEvents=1;" vertex="1" parent="axgaQE1IH_umbZ5cLaG9-147">
                    <mxGeometry x="234" width="146" height="28" as="geometry">
                        <mxRectangle width="146" height="28" as="alternateBounds"/>
                    </mxGeometry>
                </mxCell>
                <mxCell id="axgaQE1IH_umbZ5cLaG9-151" value="" style="shape=partialRectangle;collapsible=0;dropTarget=0;pointerEvents=0;fillColor=none;top=0;left=0;bottom=0;right=0;points=[[0,0.5],[1,0.5]];portConstraint=eastwest;" vertex="1" parent="axgaQE1IH_umbZ5cLaG9-126">
                    <mxGeometry y="201" width="380" height="29" as="geometry"/>
                </mxCell>
                <mxCell id="axgaQE1IH_umbZ5cLaG9-152" value="&lt;span style=&quot;color: rgb(201 , 209 , 217) ; font-family: &amp;#34;menlo&amp;#34; , &amp;#34;monaco&amp;#34; , &amp;#34;courier new&amp;#34; , monospace ; background-color: rgb(13 , 17 , 23)&quot;&gt;updated_at&lt;/span&gt;" style="shape=partialRectangle;html=1;whiteSpace=wrap;connectable=0;overflow=hidden;fillColor=none;top=0;left=0;bottom=0;right=0;pointerEvents=1;" vertex="1" parent="axgaQE1IH_umbZ5cLaG9-151">
                    <mxGeometry width="116" height="29" as="geometry">
                        <mxRectangle width="116" height="29" as="alternateBounds"/>
                    </mxGeometry>
                </mxCell>
                <mxCell id="axgaQE1IH_umbZ5cLaG9-153" value="&lt;span&gt;timestamp&lt;/span&gt;" style="shape=partialRectangle;html=1;whiteSpace=wrap;connectable=0;overflow=hidden;fillColor=none;top=0;left=0;bottom=0;right=0;pointerEvents=1;" vertex="1" parent="axgaQE1IH_umbZ5cLaG9-151">
                    <mxGeometry x="116" width="118" height="29" as="geometry">
                        <mxRectangle width="118" height="29" as="alternateBounds"/>
                    </mxGeometry>
                </mxCell>
                <mxCell id="axgaQE1IH_umbZ5cLaG9-154" value="&lt;span&gt;not null&lt;/span&gt;" style="shape=partialRectangle;html=1;whiteSpace=wrap;connectable=0;overflow=hidden;fillColor=none;top=0;left=0;bottom=0;right=0;pointerEvents=1;" vertex="1" parent="axgaQE1IH_umbZ5cLaG9-151">
                    <mxGeometry x="234" width="146" height="29" as="geometry">
                        <mxRectangle width="146" height="29" as="alternateBounds"/>
                    </mxGeometry>
                </mxCell>
                <mxCell id="axgaQE1IH_umbZ5cLaG9-160" value="N対1" style="edgeStyle=orthogonalEdgeStyle;html=1;exitX=1;exitY=0.5;exitDx=0;exitDy=0;entryX=-0.003;entryY=0.776;entryDx=0;entryDy=0;endArrow=none;endFill=0;startArrow=ERmany;startFill=0;entryPerimeter=0;" edge="1" parent="6VuhM4XT6q3mWw3kNoI1-1" source="axgaQE1IH_umbZ5cLaG9-13" target="axgaQE1IH_umbZ5cLaG9-131">
                    <mxGeometry relative="1" as="geometry"/>
                </mxCell>
                <mxCell id="axgaQE1IH_umbZ5cLaG9-161" style="edgeStyle=orthogonalEdgeStyle;html=1;entryX=0;entryY=0.5;entryDx=0;entryDy=0;endArrow=none;endFill=0;" edge="1" parent="6VuhM4XT6q3mWw3kNoI1-1" source="axgaQE1IH_umbZ5cLaG9-139" target="axgaQE1IH_umbZ5cLaG9-68">
                    <mxGeometry relative="1" as="geometry"/>
                </mxCell>
                <mxCell id="axgaQE1IH_umbZ5cLaG9-276" value="1対1" style="edgeLabel;html=1;align=center;verticalAlign=middle;resizable=0;points=[];" vertex="1" connectable="0" parent="axgaQE1IH_umbZ5cLaG9-161">
                    <mxGeometry x="-0.0187" relative="1" as="geometry">
                        <mxPoint as="offset"/>
                    </mxGeometry>
                </mxCell>
                <mxCell id="axgaQE1IH_umbZ5cLaG9-162" value="departments" style="shape=table;startSize=30;container=1;collapsible=0;childLayout=tableLayout;" vertex="1" parent="6VuhM4XT6q3mWw3kNoI1-1">
                    <mxGeometry x="1850" y="650" width="280" height="171" as="geometry"/>
                </mxCell>
                <mxCell id="axgaQE1IH_umbZ5cLaG9-163" value="" style="shape=partialRectangle;collapsible=0;dropTarget=0;pointerEvents=0;fillColor=none;top=0;left=0;bottom=0;right=0;points=[[0,0.5],[1,0.5]];portConstraint=eastwest;" vertex="1" parent="axgaQE1IH_umbZ5cLaG9-162">
                    <mxGeometry y="30" width="280" height="28" as="geometry"/>
                </mxCell>
                <mxCell id="axgaQE1IH_umbZ5cLaG9-164" value="カラム" style="shape=partialRectangle;html=1;whiteSpace=wrap;connectable=0;overflow=hidden;fillColor=none;top=0;left=0;bottom=0;right=0;pointerEvents=1;" vertex="1" parent="axgaQE1IH_umbZ5cLaG9-163">
                    <mxGeometry width="93" height="28" as="geometry">
                        <mxRectangle width="93" height="28" as="alternateBounds"/>
                    </mxGeometry>
                </mxCell>
                <mxCell id="axgaQE1IH_umbZ5cLaG9-165" value="型" style="shape=partialRectangle;html=1;whiteSpace=wrap;connectable=0;overflow=hidden;fillColor=none;top=0;left=0;bottom=0;right=0;pointerEvents=1;" vertex="1" parent="axgaQE1IH_umbZ5cLaG9-163">
                    <mxGeometry x="93" width="94" height="28" as="geometry">
                        <mxRectangle width="94" height="28" as="alternateBounds"/>
                    </mxGeometry>
                </mxCell>
                <mxCell id="axgaQE1IH_umbZ5cLaG9-166" value="制約" style="shape=partialRectangle;html=1;whiteSpace=wrap;connectable=0;overflow=hidden;fillColor=none;top=0;left=0;bottom=0;right=0;pointerEvents=1;" vertex="1" parent="axgaQE1IH_umbZ5cLaG9-163">
                    <mxGeometry x="187" width="93" height="28" as="geometry">
                        <mxRectangle width="93" height="28" as="alternateBounds"/>
                    </mxGeometry>
                </mxCell>
                <mxCell id="axgaQE1IH_umbZ5cLaG9-167" value="" style="shape=partialRectangle;collapsible=0;dropTarget=0;pointerEvents=0;fillColor=none;top=0;left=0;bottom=0;right=0;points=[[0,0.5],[1,0.5]];portConstraint=eastwest;" vertex="1" parent="axgaQE1IH_umbZ5cLaG9-162">
                    <mxGeometry y="58" width="280" height="28" as="geometry"/>
                </mxCell>
                <mxCell id="axgaQE1IH_umbZ5cLaG9-168" value="id" style="shape=partialRectangle;html=1;whiteSpace=wrap;connectable=0;overflow=hidden;fillColor=none;top=0;left=0;bottom=0;right=0;pointerEvents=1;" vertex="1" parent="axgaQE1IH_umbZ5cLaG9-167">
                    <mxGeometry width="93" height="28" as="geometry">
                        <mxRectangle width="93" height="28" as="alternateBounds"/>
                    </mxGeometry>
                </mxCell>
                <mxCell id="axgaQE1IH_umbZ5cLaG9-169" value="int" style="shape=partialRectangle;html=1;whiteSpace=wrap;connectable=0;overflow=hidden;fillColor=none;top=0;left=0;bottom=0;right=0;pointerEvents=1;" vertex="1" parent="axgaQE1IH_umbZ5cLaG9-167">
                    <mxGeometry x="93" width="94" height="28" as="geometry">
                        <mxRectangle width="94" height="28" as="alternateBounds"/>
                    </mxGeometry>
                </mxCell>
                <mxCell id="axgaQE1IH_umbZ5cLaG9-170" value="primary" style="shape=partialRectangle;html=1;whiteSpace=wrap;connectable=0;overflow=hidden;fillColor=none;top=0;left=0;bottom=0;right=0;pointerEvents=1;" vertex="1" parent="axgaQE1IH_umbZ5cLaG9-167">
                    <mxGeometry x="187" width="93" height="28" as="geometry">
                        <mxRectangle width="93" height="28" as="alternateBounds"/>
                    </mxGeometry>
                </mxCell>
                <mxCell id="axgaQE1IH_umbZ5cLaG9-171" value="" style="shape=partialRectangle;collapsible=0;dropTarget=0;pointerEvents=0;fillColor=none;top=0;left=0;bottom=0;right=0;points=[[0,0.5],[1,0.5]];portConstraint=eastwest;" vertex="1" parent="axgaQE1IH_umbZ5cLaG9-162">
                    <mxGeometry y="86" width="280" height="29" as="geometry"/>
                </mxCell>
                <mxCell id="axgaQE1IH_umbZ5cLaG9-172" value="name" style="shape=partialRectangle;html=1;whiteSpace=wrap;connectable=0;overflow=hidden;fillColor=none;top=0;left=0;bottom=0;right=0;pointerEvents=1;" vertex="1" parent="axgaQE1IH_umbZ5cLaG9-171">
                    <mxGeometry width="93" height="29" as="geometry">
                        <mxRectangle width="93" height="29" as="alternateBounds"/>
                    </mxGeometry>
                </mxCell>
                <mxCell id="axgaQE1IH_umbZ5cLaG9-173" value="string" style="shape=partialRectangle;html=1;whiteSpace=wrap;connectable=0;overflow=hidden;fillColor=none;top=0;left=0;bottom=0;right=0;pointerEvents=1;" vertex="1" parent="axgaQE1IH_umbZ5cLaG9-171">
                    <mxGeometry x="93" width="94" height="29" as="geometry">
                        <mxRectangle width="94" height="29" as="alternateBounds"/>
                    </mxGeometry>
                </mxCell>
                <mxCell id="axgaQE1IH_umbZ5cLaG9-174" value="" style="shape=partialRectangle;html=1;whiteSpace=wrap;connectable=0;overflow=hidden;fillColor=none;top=0;left=0;bottom=0;right=0;pointerEvents=1;" vertex="1" parent="axgaQE1IH_umbZ5cLaG9-171">
                    <mxGeometry x="187" width="93" height="29" as="geometry">
                        <mxRectangle width="93" height="29" as="alternateBounds"/>
                    </mxGeometry>
                </mxCell>
                <mxCell id="axgaQE1IH_umbZ5cLaG9-175" value="" style="shape=partialRectangle;collapsible=0;dropTarget=0;pointerEvents=0;fillColor=none;top=0;left=0;bottom=0;right=0;points=[[0,0.5],[1,0.5]];portConstraint=eastwest;" vertex="1" parent="axgaQE1IH_umbZ5cLaG9-162">
                    <mxGeometry y="115" width="280" height="28" as="geometry"/>
                </mxCell>
                <mxCell id="axgaQE1IH_umbZ5cLaG9-176" value="&lt;span style=&quot;color: rgb(201 , 209 , 217) ; font-family: &amp;#34;menlo&amp;#34; , &amp;#34;monaco&amp;#34; , &amp;#34;courier new&amp;#34; , monospace ; background-color: rgb(13 , 17 , 23)&quot;&gt;created_at&lt;/span&gt;" style="shape=partialRectangle;html=1;whiteSpace=wrap;connectable=0;overflow=hidden;fillColor=none;top=0;left=0;bottom=0;right=0;pointerEvents=1;" vertex="1" parent="axgaQE1IH_umbZ5cLaG9-175">
                    <mxGeometry width="93" height="28" as="geometry">
                        <mxRectangle width="93" height="28" as="alternateBounds"/>
                    </mxGeometry>
                </mxCell>
                <mxCell id="axgaQE1IH_umbZ5cLaG9-177" value="timestamp" style="shape=partialRectangle;html=1;whiteSpace=wrap;connectable=0;overflow=hidden;fillColor=none;top=0;left=0;bottom=0;right=0;pointerEvents=1;" vertex="1" parent="axgaQE1IH_umbZ5cLaG9-175">
                    <mxGeometry x="93" width="94" height="28" as="geometry">
                        <mxRectangle width="94" height="28" as="alternateBounds"/>
                    </mxGeometry>
                </mxCell>
                <mxCell id="axgaQE1IH_umbZ5cLaG9-178" value="not null" style="shape=partialRectangle;html=1;whiteSpace=wrap;connectable=0;overflow=hidden;fillColor=none;top=0;left=0;bottom=0;right=0;pointerEvents=1;" vertex="1" parent="axgaQE1IH_umbZ5cLaG9-175">
                    <mxGeometry x="187" width="93" height="28" as="geometry">
                        <mxRectangle width="93" height="28" as="alternateBounds"/>
                    </mxGeometry>
                </mxCell>
                <mxCell id="axgaQE1IH_umbZ5cLaG9-179" value="" style="shape=partialRectangle;collapsible=0;dropTarget=0;pointerEvents=0;fillColor=none;top=0;left=0;bottom=0;right=0;points=[[0,0.5],[1,0.5]];portConstraint=eastwest;" vertex="1" parent="axgaQE1IH_umbZ5cLaG9-162">
                    <mxGeometry y="143" width="280" height="28" as="geometry"/>
                </mxCell>
                <mxCell id="axgaQE1IH_umbZ5cLaG9-180" value="&lt;span style=&quot;color: rgb(201 , 209 , 217) ; font-family: &amp;#34;menlo&amp;#34; , &amp;#34;monaco&amp;#34; , &amp;#34;courier new&amp;#34; , monospace ; background-color: rgb(13 , 17 , 23)&quot;&gt;updated_at&lt;/span&gt;" style="shape=partialRectangle;html=1;whiteSpace=wrap;connectable=0;overflow=hidden;fillColor=none;top=0;left=0;bottom=0;right=0;pointerEvents=1;" vertex="1" parent="axgaQE1IH_umbZ5cLaG9-179">
                    <mxGeometry width="93" height="28" as="geometry">
                        <mxRectangle width="93" height="28" as="alternateBounds"/>
                    </mxGeometry>
                </mxCell>
                <mxCell id="axgaQE1IH_umbZ5cLaG9-181" value="timestamp" style="shape=partialRectangle;html=1;whiteSpace=wrap;connectable=0;overflow=hidden;fillColor=none;top=0;left=0;bottom=0;right=0;pointerEvents=1;" vertex="1" parent="axgaQE1IH_umbZ5cLaG9-179">
                    <mxGeometry x="93" width="94" height="28" as="geometry">
                        <mxRectangle width="94" height="28" as="alternateBounds"/>
                    </mxGeometry>
                </mxCell>
                <mxCell id="axgaQE1IH_umbZ5cLaG9-182" value="not null" style="shape=partialRectangle;html=1;whiteSpace=wrap;connectable=0;overflow=hidden;fillColor=none;top=0;left=0;bottom=0;right=0;pointerEvents=1;" vertex="1" parent="axgaQE1IH_umbZ5cLaG9-179">
                    <mxGeometry x="187" width="93" height="28" as="geometry">
                        <mxRectangle width="93" height="28" as="alternateBounds"/>
                    </mxGeometry>
                </mxCell>
                <mxCell id="axgaQE1IH_umbZ5cLaG9-183" value="fund_information" style="shape=table;startSize=30;container=1;collapsible=0;childLayout=tableLayout;" vertex="1" parent="6VuhM4XT6q3mWw3kNoI1-1">
                    <mxGeometry x="940" y="600" width="330" height="311" as="geometry"/>
                </mxCell>
                <mxCell id="axgaQE1IH_umbZ5cLaG9-184" value="" style="shape=partialRectangle;collapsible=0;dropTarget=0;pointerEvents=0;fillColor=none;top=0;left=0;bottom=0;right=0;points=[[0,0.5],[1,0.5]];portConstraint=eastwest;" vertex="1" parent="axgaQE1IH_umbZ5cLaG9-183">
                    <mxGeometry y="30" width="330" height="28" as="geometry"/>
                </mxCell>
                <mxCell id="axgaQE1IH_umbZ5cLaG9-185" value="カラム" style="shape=partialRectangle;html=1;whiteSpace=wrap;connectable=0;overflow=hidden;fillColor=none;top=0;left=0;bottom=0;right=0;pointerEvents=1;" vertex="1" parent="axgaQE1IH_umbZ5cLaG9-184">
                    <mxGeometry width="110" height="28" as="geometry">
                        <mxRectangle width="110" height="28" as="alternateBounds"/>
                    </mxGeometry>
                </mxCell>
                <mxCell id="axgaQE1IH_umbZ5cLaG9-186" value="型" style="shape=partialRectangle;html=1;whiteSpace=wrap;connectable=0;overflow=hidden;fillColor=none;top=0;left=0;bottom=0;right=0;pointerEvents=1;" vertex="1" parent="axgaQE1IH_umbZ5cLaG9-184">
                    <mxGeometry x="110" width="110" height="28" as="geometry">
                        <mxRectangle width="110" height="28" as="alternateBounds"/>
                    </mxGeometry>
                </mxCell>
                <mxCell id="axgaQE1IH_umbZ5cLaG9-187" value="制約" style="shape=partialRectangle;html=1;whiteSpace=wrap;connectable=0;overflow=hidden;fillColor=none;top=0;left=0;bottom=0;right=0;pointerEvents=1;" vertex="1" parent="axgaQE1IH_umbZ5cLaG9-184">
                    <mxGeometry x="220" width="110" height="28" as="geometry">
                        <mxRectangle width="110" height="28" as="alternateBounds"/>
                    </mxGeometry>
                </mxCell>
                <mxCell id="axgaQE1IH_umbZ5cLaG9-188" value="" style="shape=partialRectangle;collapsible=0;dropTarget=0;pointerEvents=0;fillColor=none;top=0;left=0;bottom=0;right=0;points=[[0,0.5],[1,0.5]];portConstraint=eastwest;" vertex="1" parent="axgaQE1IH_umbZ5cLaG9-183">
                    <mxGeometry y="58" width="330" height="28" as="geometry"/>
                </mxCell>
                <mxCell id="axgaQE1IH_umbZ5cLaG9-189" value="id" style="shape=partialRectangle;html=1;whiteSpace=wrap;connectable=0;overflow=hidden;fillColor=none;top=0;left=0;bottom=0;right=0;pointerEvents=1;" vertex="1" parent="axgaQE1IH_umbZ5cLaG9-188">
                    <mxGeometry width="110" height="28" as="geometry">
                        <mxRectangle width="110" height="28" as="alternateBounds"/>
                    </mxGeometry>
                </mxCell>
                <mxCell id="axgaQE1IH_umbZ5cLaG9-190" value="int" style="shape=partialRectangle;html=1;whiteSpace=wrap;connectable=0;overflow=hidden;fillColor=none;top=0;left=0;bottom=0;right=0;pointerEvents=1;" vertex="1" parent="axgaQE1IH_umbZ5cLaG9-188">
                    <mxGeometry x="110" width="110" height="28" as="geometry">
                        <mxRectangle width="110" height="28" as="alternateBounds"/>
                    </mxGeometry>
                </mxCell>
                <mxCell id="axgaQE1IH_umbZ5cLaG9-191" value="&lt;div style=&quot;background-color: rgb(13 , 17 , 23) ; font-family: &amp;#34;menlo&amp;#34; , &amp;#34;monaco&amp;#34; , &amp;#34;courier new&amp;#34; , monospace ; line-height: 18px&quot;&gt;&lt;font color=&quot;#ff7b72&quot;&gt;primary&lt;/font&gt;&lt;/div&gt;" style="shape=partialRectangle;html=1;whiteSpace=wrap;connectable=0;overflow=hidden;fillColor=none;top=0;left=0;bottom=0;right=0;pointerEvents=1;" vertex="1" parent="axgaQE1IH_umbZ5cLaG9-188">
                    <mxGeometry x="220" width="110" height="28" as="geometry">
                        <mxRectangle width="110" height="28" as="alternateBounds"/>
                    </mxGeometry>
                </mxCell>
                <mxCell id="axgaQE1IH_umbZ5cLaG9-192" value="" style="shape=partialRectangle;collapsible=0;dropTarget=0;pointerEvents=0;fillColor=none;top=0;left=0;bottom=0;right=0;points=[[0,0.5],[1,0.5]];portConstraint=eastwest;" vertex="1" parent="axgaQE1IH_umbZ5cLaG9-183">
                    <mxGeometry y="86" width="330" height="28" as="geometry"/>
                </mxCell>
                <mxCell id="axgaQE1IH_umbZ5cLaG9-193" value="user_id" style="shape=partialRectangle;html=1;whiteSpace=wrap;connectable=0;overflow=hidden;fillColor=none;top=0;left=0;bottom=0;right=0;pointerEvents=1;" vertex="1" parent="axgaQE1IH_umbZ5cLaG9-192">
                    <mxGeometry width="110" height="28" as="geometry">
                        <mxRectangle width="110" height="28" as="alternateBounds"/>
                    </mxGeometry>
                </mxCell>
                <mxCell id="axgaQE1IH_umbZ5cLaG9-194" value="int" style="shape=partialRectangle;html=1;whiteSpace=wrap;connectable=0;overflow=hidden;fillColor=none;top=0;left=0;bottom=0;right=0;pointerEvents=1;" vertex="1" parent="axgaQE1IH_umbZ5cLaG9-192">
                    <mxGeometry x="110" width="110" height="28" as="geometry">
                        <mxRectangle width="110" height="28" as="alternateBounds"/>
                    </mxGeometry>
                </mxCell>
                <mxCell id="axgaQE1IH_umbZ5cLaG9-195" value="&lt;div style=&quot;color: rgb(201 , 209 , 217) ; background-color: rgb(13 , 17 , 23) ; font-family: &amp;#34;menlo&amp;#34; , &amp;#34;monaco&amp;#34; , &amp;#34;courier new&amp;#34; , monospace ; line-height: 18px&quot;&gt;&lt;span style=&quot;color: #ff7b72&quot;&gt;not&lt;/span&gt; &lt;span style=&quot;color: #ff7b72&quot;&gt;null&lt;/span&gt;&lt;/div&gt;" style="shape=partialRectangle;html=1;whiteSpace=wrap;connectable=0;overflow=hidden;fillColor=none;top=0;left=0;bottom=0;right=0;pointerEvents=1;" vertex="1" parent="axgaQE1IH_umbZ5cLaG9-192">
                    <mxGeometry x="220" width="110" height="28" as="geometry">
                        <mxRectangle width="110" height="28" as="alternateBounds"/>
                    </mxGeometry>
                </mxCell>
                <mxCell id="axgaQE1IH_umbZ5cLaG9-196" value="" style="shape=partialRectangle;collapsible=0;dropTarget=0;pointerEvents=0;fillColor=none;top=0;left=0;bottom=0;right=0;points=[[0,0.5],[1,0.5]];portConstraint=eastwest;" vertex="1" parent="axgaQE1IH_umbZ5cLaG9-183">
                    <mxGeometry y="114" width="330" height="28" as="geometry"/>
                </mxCell>
                <mxCell id="axgaQE1IH_umbZ5cLaG9-197" value="&lt;div style=&quot;color: rgb(201 , 209 , 217) ; background-color: rgb(13 , 17 , 23) ; font-family: &amp;#34;menlo&amp;#34; , &amp;#34;monaco&amp;#34; , &amp;#34;courier new&amp;#34; , monospace ; line-height: 18px&quot;&gt;teacher_id&lt;/div&gt;" style="shape=partialRectangle;html=1;whiteSpace=wrap;connectable=0;overflow=hidden;fillColor=none;top=0;left=0;bottom=0;right=0;pointerEvents=1;" vertex="1" parent="axgaQE1IH_umbZ5cLaG9-196">
                    <mxGeometry width="110" height="28" as="geometry">
                        <mxRectangle width="110" height="28" as="alternateBounds"/>
                    </mxGeometry>
                </mxCell>
                <mxCell id="axgaQE1IH_umbZ5cLaG9-198" value="int" style="shape=partialRectangle;html=1;whiteSpace=wrap;connectable=0;overflow=hidden;fillColor=none;top=0;left=0;bottom=0;right=0;pointerEvents=1;" vertex="1" parent="axgaQE1IH_umbZ5cLaG9-196">
                    <mxGeometry x="110" width="110" height="28" as="geometry">
                        <mxRectangle width="110" height="28" as="alternateBounds"/>
                    </mxGeometry>
                </mxCell>
                <mxCell id="axgaQE1IH_umbZ5cLaG9-199" value="&lt;div style=&quot;color: rgb(201 , 209 , 217) ; background-color: rgb(13 , 17 , 23) ; font-family: &amp;#34;menlo&amp;#34; , &amp;#34;monaco&amp;#34; , &amp;#34;courier new&amp;#34; , monospace ; line-height: 18px&quot;&gt;&lt;span style=&quot;color: #ff7b72&quot;&gt;not&lt;/span&gt; &lt;span style=&quot;color: #ff7b72&quot;&gt;null&lt;/span&gt;&lt;/div&gt;" style="shape=partialRectangle;html=1;whiteSpace=wrap;connectable=0;overflow=hidden;fillColor=none;top=0;left=0;bottom=0;right=0;pointerEvents=1;" vertex="1" parent="axgaQE1IH_umbZ5cLaG9-196">
                    <mxGeometry x="220" width="110" height="28" as="geometry">
                        <mxRectangle width="110" height="28" as="alternateBounds"/>
                    </mxGeometry>
                </mxCell>
                <mxCell id="axgaQE1IH_umbZ5cLaG9-200" value="" style="shape=partialRectangle;collapsible=0;dropTarget=0;pointerEvents=0;fillColor=none;top=0;left=0;bottom=0;right=0;points=[[0,0.5],[1,0.5]];portConstraint=eastwest;" vertex="1" parent="axgaQE1IH_umbZ5cLaG9-183">
                    <mxGeometry y="142" width="330" height="29" as="geometry"/>
                </mxCell>
                <mxCell id="axgaQE1IH_umbZ5cLaG9-201" value="&lt;div style=&quot;color: rgb(201 , 209 , 217) ; background-color: rgb(13 , 17 , 23) ; font-family: &amp;#34;menlo&amp;#34; , &amp;#34;monaco&amp;#34; , &amp;#34;courier new&amp;#34; , monospace ; line-height: 18px&quot;&gt;price&lt;/div&gt;" style="shape=partialRectangle;html=1;whiteSpace=wrap;connectable=0;overflow=hidden;fillColor=none;top=0;left=0;bottom=0;right=0;pointerEvents=1;" vertex="1" parent="axgaQE1IH_umbZ5cLaG9-200">
                    <mxGeometry width="110" height="29" as="geometry">
                        <mxRectangle width="110" height="29" as="alternateBounds"/>
                    </mxGeometry>
                </mxCell>
                <mxCell id="axgaQE1IH_umbZ5cLaG9-202" value="int" style="shape=partialRectangle;html=1;whiteSpace=wrap;connectable=0;overflow=hidden;fillColor=none;top=0;left=0;bottom=0;right=0;pointerEvents=1;" vertex="1" parent="axgaQE1IH_umbZ5cLaG9-200">
                    <mxGeometry x="110" width="110" height="29" as="geometry">
                        <mxRectangle width="110" height="29" as="alternateBounds"/>
                    </mxGeometry>
                </mxCell>
                <mxCell id="axgaQE1IH_umbZ5cLaG9-203" value="" style="shape=partialRectangle;html=1;whiteSpace=wrap;connectable=0;overflow=hidden;fillColor=none;top=0;left=0;bottom=0;right=0;pointerEvents=1;" vertex="1" parent="axgaQE1IH_umbZ5cLaG9-200">
                    <mxGeometry x="220" width="110" height="29" as="geometry">
                        <mxRectangle width="110" height="29" as="alternateBounds"/>
                    </mxGeometry>
                </mxCell>
                <mxCell id="axgaQE1IH_umbZ5cLaG9-204" value="" style="shape=partialRectangle;collapsible=0;dropTarget=0;pointerEvents=0;fillColor=none;top=0;left=0;bottom=0;right=0;points=[[0,0.5],[1,0.5]];portConstraint=eastwest;" vertex="1" parent="axgaQE1IH_umbZ5cLaG9-183">
                    <mxGeometry y="171" width="330" height="28" as="geometry"/>
                </mxCell>
                <mxCell id="axgaQE1IH_umbZ5cLaG9-205" value="&lt;div style=&quot;color: rgb(201 , 209 , 217) ; background-color: rgb(13 , 17 , 23) ; font-family: &amp;#34;menlo&amp;#34; , &amp;#34;monaco&amp;#34; , &amp;#34;courier new&amp;#34; , monospace ; line-height: 18px&quot;&gt;remark&lt;/div&gt;" style="shape=partialRectangle;html=1;whiteSpace=wrap;connectable=0;overflow=hidden;fillColor=none;top=0;left=0;bottom=0;right=0;pointerEvents=1;" vertex="1" parent="axgaQE1IH_umbZ5cLaG9-204">
                    <mxGeometry width="110" height="28" as="geometry">
                        <mxRectangle width="110" height="28" as="alternateBounds"/>
                    </mxGeometry>
                </mxCell>
                <mxCell id="axgaQE1IH_umbZ5cLaG9-206" value="string" style="shape=partialRectangle;html=1;whiteSpace=wrap;connectable=0;overflow=hidden;fillColor=none;top=0;left=0;bottom=0;right=0;pointerEvents=1;" vertex="1" parent="axgaQE1IH_umbZ5cLaG9-204">
                    <mxGeometry x="110" width="110" height="28" as="geometry">
                        <mxRectangle width="110" height="28" as="alternateBounds"/>
                    </mxGeometry>
                </mxCell>
                <mxCell id="axgaQE1IH_umbZ5cLaG9-207" value="" style="shape=partialRectangle;html=1;whiteSpace=wrap;connectable=0;overflow=hidden;fillColor=none;top=0;left=0;bottom=0;right=0;pointerEvents=1;" vertex="1" parent="axgaQE1IH_umbZ5cLaG9-204">
                    <mxGeometry x="220" width="110" height="28" as="geometry">
                        <mxRectangle width="110" height="28" as="alternateBounds"/>
                    </mxGeometry>
                </mxCell>
                <mxCell id="axgaQE1IH_umbZ5cLaG9-208" value="" style="shape=partialRectangle;collapsible=0;dropTarget=0;pointerEvents=0;fillColor=none;top=0;left=0;bottom=0;right=0;points=[[0,0.5],[1,0.5]];portConstraint=eastwest;" vertex="1" parent="axgaQE1IH_umbZ5cLaG9-183">
                    <mxGeometry y="199" width="330" height="28" as="geometry"/>
                </mxCell>
                <mxCell id="axgaQE1IH_umbZ5cLaG9-209" value="&lt;div style=&quot;color: rgb(201 , 209 , 217) ; background-color: rgb(13 , 17 , 23) ; font-family: &amp;#34;menlo&amp;#34; , &amp;#34;monaco&amp;#34; , &amp;#34;courier new&amp;#34; , monospace ; line-height: 18px&quot;&gt;is_first_check&lt;/div&gt;" style="shape=partialRectangle;html=1;whiteSpace=wrap;connectable=0;overflow=hidden;fillColor=none;top=0;left=0;bottom=0;right=0;pointerEvents=1;" vertex="1" parent="axgaQE1IH_umbZ5cLaG9-208">
                    <mxGeometry width="110" height="28" as="geometry">
                        <mxRectangle width="110" height="28" as="alternateBounds"/>
                    </mxGeometry>
                </mxCell>
                <mxCell id="axgaQE1IH_umbZ5cLaG9-210" value="boolean" style="shape=partialRectangle;html=1;whiteSpace=wrap;connectable=0;overflow=hidden;fillColor=none;top=0;left=0;bottom=0;right=0;pointerEvents=1;" vertex="1" parent="axgaQE1IH_umbZ5cLaG9-208">
                    <mxGeometry x="110" width="110" height="28" as="geometry">
                        <mxRectangle width="110" height="28" as="alternateBounds"/>
                    </mxGeometry>
                </mxCell>
                <mxCell id="axgaQE1IH_umbZ5cLaG9-211" value="" style="shape=partialRectangle;html=1;whiteSpace=wrap;connectable=0;overflow=hidden;fillColor=none;top=0;left=0;bottom=0;right=0;pointerEvents=1;" vertex="1" parent="axgaQE1IH_umbZ5cLaG9-208">
                    <mxGeometry x="220" width="110" height="28" as="geometry">
                        <mxRectangle width="110" height="28" as="alternateBounds"/>
                    </mxGeometry>
                </mxCell>
                <mxCell id="axgaQE1IH_umbZ5cLaG9-212" value="" style="shape=partialRectangle;collapsible=0;dropTarget=0;pointerEvents=0;fillColor=none;top=0;left=0;bottom=0;right=0;points=[[0,0.5],[1,0.5]];portConstraint=eastwest;" vertex="1" parent="axgaQE1IH_umbZ5cLaG9-183">
                    <mxGeometry y="227" width="330" height="28" as="geometry"/>
                </mxCell>
                <mxCell id="axgaQE1IH_umbZ5cLaG9-213" value="&lt;div style=&quot;color: rgb(201 , 209 , 217) ; background-color: rgb(13 , 17 , 23) ; font-family: &amp;#34;menlo&amp;#34; , &amp;#34;monaco&amp;#34; , &amp;#34;courier new&amp;#34; , monospace ; line-height: 18px&quot;&gt;is_last_check&lt;/div&gt;" style="shape=partialRectangle;html=1;whiteSpace=wrap;connectable=0;overflow=hidden;fillColor=none;top=0;left=0;bottom=0;right=0;pointerEvents=1;" vertex="1" parent="axgaQE1IH_umbZ5cLaG9-212">
                    <mxGeometry width="110" height="28" as="geometry">
                        <mxRectangle width="110" height="28" as="alternateBounds"/>
                    </mxGeometry>
                </mxCell>
                <mxCell id="axgaQE1IH_umbZ5cLaG9-214" value="boolean" style="shape=partialRectangle;html=1;whiteSpace=wrap;connectable=0;overflow=hidden;fillColor=none;top=0;left=0;bottom=0;right=0;pointerEvents=1;" vertex="1" parent="axgaQE1IH_umbZ5cLaG9-212">
                    <mxGeometry x="110" width="110" height="28" as="geometry">
                        <mxRectangle width="110" height="28" as="alternateBounds"/>
                    </mxGeometry>
                </mxCell>
                <mxCell id="axgaQE1IH_umbZ5cLaG9-215" value="" style="shape=partialRectangle;html=1;whiteSpace=wrap;connectable=0;overflow=hidden;fillColor=none;top=0;left=0;bottom=0;right=0;pointerEvents=1;" vertex="1" parent="axgaQE1IH_umbZ5cLaG9-212">
                    <mxGeometry x="220" width="110" height="28" as="geometry">
                        <mxRectangle width="110" height="28" as="alternateBounds"/>
                    </mxGeometry>
                </mxCell>
                <mxCell id="axgaQE1IH_umbZ5cLaG9-216" value="" style="shape=partialRectangle;collapsible=0;dropTarget=0;pointerEvents=0;fillColor=none;top=0;left=0;bottom=0;right=0;points=[[0,0.5],[1,0.5]];portConstraint=eastwest;" vertex="1" parent="axgaQE1IH_umbZ5cLaG9-183">
                    <mxGeometry y="255" width="330" height="28" as="geometry"/>
                </mxCell>
                <mxCell id="axgaQE1IH_umbZ5cLaG9-217" value="&lt;div style=&quot;color: rgb(201 , 209 , 217) ; background-color: rgb(13 , 17 , 23) ; font-family: &amp;#34;menlo&amp;#34; , &amp;#34;monaco&amp;#34; , &amp;#34;courier new&amp;#34; , monospace ; line-height: 18px&quot;&gt;created_at&lt;/div&gt;" style="shape=partialRectangle;html=1;whiteSpace=wrap;connectable=0;overflow=hidden;fillColor=none;top=0;left=0;bottom=0;right=0;pointerEvents=1;" vertex="1" parent="axgaQE1IH_umbZ5cLaG9-216">
                    <mxGeometry width="110" height="28" as="geometry">
                        <mxRectangle width="110" height="28" as="alternateBounds"/>
                    </mxGeometry>
                </mxCell>
                <mxCell id="axgaQE1IH_umbZ5cLaG9-218" value="timestamp" style="shape=partialRectangle;html=1;whiteSpace=wrap;connectable=0;overflow=hidden;fillColor=none;top=0;left=0;bottom=0;right=0;pointerEvents=1;" vertex="1" parent="axgaQE1IH_umbZ5cLaG9-216">
                    <mxGeometry x="110" width="110" height="28" as="geometry">
                        <mxRectangle width="110" height="28" as="alternateBounds"/>
                    </mxGeometry>
                </mxCell>
                <mxCell id="axgaQE1IH_umbZ5cLaG9-219" value="&lt;div style=&quot;color: rgb(201 , 209 , 217) ; background-color: rgb(13 , 17 , 23) ; font-family: &amp;#34;menlo&amp;#34; , &amp;#34;monaco&amp;#34; , &amp;#34;courier new&amp;#34; , monospace ; line-height: 18px&quot;&gt;&lt;span style=&quot;color: #ff7b72&quot;&gt;not&lt;/span&gt; &lt;span style=&quot;color: #ff7b72&quot;&gt;null&lt;/span&gt;&lt;/div&gt;" style="shape=partialRectangle;html=1;whiteSpace=wrap;connectable=0;overflow=hidden;fillColor=none;top=0;left=0;bottom=0;right=0;pointerEvents=1;" vertex="1" parent="axgaQE1IH_umbZ5cLaG9-216">
                    <mxGeometry x="220" width="110" height="28" as="geometry">
                        <mxRectangle width="110" height="28" as="alternateBounds"/>
                    </mxGeometry>
                </mxCell>
                <mxCell id="axgaQE1IH_umbZ5cLaG9-220" value="" style="shape=partialRectangle;collapsible=0;dropTarget=0;pointerEvents=0;fillColor=none;top=0;left=0;bottom=0;right=0;points=[[0,0.5],[1,0.5]];portConstraint=eastwest;" vertex="1" parent="axgaQE1IH_umbZ5cLaG9-183">
                    <mxGeometry y="283" width="330" height="28" as="geometry"/>
                </mxCell>
                <mxCell id="axgaQE1IH_umbZ5cLaG9-221" value="&lt;div style=&quot;color: rgb(201 , 209 , 217) ; background-color: rgb(13 , 17 , 23) ; font-family: &amp;#34;menlo&amp;#34; , &amp;#34;monaco&amp;#34; , &amp;#34;courier new&amp;#34; , monospace ; line-height: 18px&quot;&gt;updated_at&lt;/div&gt;" style="shape=partialRectangle;html=1;whiteSpace=wrap;connectable=0;overflow=hidden;fillColor=none;top=0;left=0;bottom=0;right=0;pointerEvents=1;" vertex="1" parent="axgaQE1IH_umbZ5cLaG9-220">
                    <mxGeometry width="110" height="28" as="geometry">
                        <mxRectangle width="110" height="28" as="alternateBounds"/>
                    </mxGeometry>
                </mxCell>
                <mxCell id="axgaQE1IH_umbZ5cLaG9-222" value="timestamp" style="shape=partialRectangle;html=1;whiteSpace=wrap;connectable=0;overflow=hidden;fillColor=none;top=0;left=0;bottom=0;right=0;pointerEvents=1;" vertex="1" parent="axgaQE1IH_umbZ5cLaG9-220">
                    <mxGeometry x="110" width="110" height="28" as="geometry">
                        <mxRectangle width="110" height="28" as="alternateBounds"/>
                    </mxGeometry>
                </mxCell>
                <mxCell id="axgaQE1IH_umbZ5cLaG9-223" value="&lt;div style=&quot;color: rgb(201 , 209 , 217) ; background-color: rgb(13 , 17 , 23) ; font-family: &amp;#34;menlo&amp;#34; , &amp;#34;monaco&amp;#34; , &amp;#34;courier new&amp;#34; , monospace ; line-height: 18px&quot;&gt;&lt;span style=&quot;color: #ff7b72&quot;&gt;not&lt;/span&gt; &lt;span style=&quot;color: #ff7b72&quot;&gt;null&lt;/span&gt;&lt;/div&gt;" style="shape=partialRectangle;html=1;whiteSpace=wrap;connectable=0;overflow=hidden;fillColor=none;top=0;left=0;bottom=0;right=0;pointerEvents=1;" vertex="1" parent="axgaQE1IH_umbZ5cLaG9-220">
                    <mxGeometry x="220" width="110" height="28" as="geometry">
                        <mxRectangle width="110" height="28" as="alternateBounds"/>
                    </mxGeometry>
                </mxCell>
                <mxCell id="axgaQE1IH_umbZ5cLaG9-228" value="N対1" style="edgeStyle=orthogonalEdgeStyle;html=1;exitX=1;exitY=0.5;exitDx=0;exitDy=0;entryX=0;entryY=0.5;entryDx=0;entryDy=0;startArrow=ERmany;startFill=0;endArrow=none;endFill=0;" edge="1" parent="6VuhM4XT6q3mWw3kNoI1-1" source="axgaQE1IH_umbZ5cLaG9-192" target="axgaQE1IH_umbZ5cLaG9-131">
                    <mxGeometry relative="1" as="geometry">
                        <Array as="points">
                            <mxPoint x="1360" y="700"/>
                            <mxPoint x="1360" y="1243"/>
                        </Array>
                    </mxGeometry>
                </mxCell>
                <mxCell id="axgaQE1IH_umbZ5cLaG9-229" value="teachers" style="shape=table;startSize=30;container=1;collapsible=0;childLayout=tableLayout;" vertex="1" parent="6VuhM4XT6q3mWw3kNoI1-1">
                    <mxGeometry x="1440" y="750" width="310" height="321" as="geometry"/>
                </mxCell>
                <mxCell id="axgaQE1IH_umbZ5cLaG9-230" value="" style="shape=partialRectangle;collapsible=0;dropTarget=0;pointerEvents=0;fillColor=none;top=0;left=0;bottom=0;right=0;points=[[0,0.5],[1,0.5]];portConstraint=eastwest;" vertex="1" parent="axgaQE1IH_umbZ5cLaG9-229">
                    <mxGeometry y="30" width="310" height="29" as="geometry"/>
                </mxCell>
                <mxCell id="axgaQE1IH_umbZ5cLaG9-231" value="カラム" style="shape=partialRectangle;html=1;whiteSpace=wrap;connectable=0;overflow=hidden;fillColor=none;top=0;left=0;bottom=0;right=0;pointerEvents=1;" vertex="1" parent="axgaQE1IH_umbZ5cLaG9-230">
                    <mxGeometry width="103" height="29" as="geometry">
                        <mxRectangle width="103" height="29" as="alternateBounds"/>
                    </mxGeometry>
                </mxCell>
                <mxCell id="axgaQE1IH_umbZ5cLaG9-232" value="型" style="shape=partialRectangle;html=1;whiteSpace=wrap;connectable=0;overflow=hidden;fillColor=none;top=0;left=0;bottom=0;right=0;pointerEvents=1;" vertex="1" parent="axgaQE1IH_umbZ5cLaG9-230">
                    <mxGeometry x="103" width="104" height="29" as="geometry">
                        <mxRectangle width="104" height="29" as="alternateBounds"/>
                    </mxGeometry>
                </mxCell>
                <mxCell id="axgaQE1IH_umbZ5cLaG9-233" value="制約" style="shape=partialRectangle;html=1;whiteSpace=wrap;connectable=0;overflow=hidden;fillColor=none;top=0;left=0;bottom=0;right=0;pointerEvents=1;" vertex="1" parent="axgaQE1IH_umbZ5cLaG9-230">
                    <mxGeometry x="207" width="103" height="29" as="geometry">
                        <mxRectangle width="103" height="29" as="alternateBounds"/>
                    </mxGeometry>
                </mxCell>
                <mxCell id="axgaQE1IH_umbZ5cLaG9-234" value="" style="shape=partialRectangle;collapsible=0;dropTarget=0;pointerEvents=0;fillColor=none;top=0;left=0;bottom=0;right=0;points=[[0,0.5],[1,0.5]];portConstraint=eastwest;" vertex="1" parent="axgaQE1IH_umbZ5cLaG9-229">
                    <mxGeometry y="59" width="310" height="29" as="geometry"/>
                </mxCell>
                <mxCell id="axgaQE1IH_umbZ5cLaG9-235" value="id" style="shape=partialRectangle;html=1;whiteSpace=wrap;connectable=0;overflow=hidden;fillColor=none;top=0;left=0;bottom=0;right=0;pointerEvents=1;" vertex="1" parent="axgaQE1IH_umbZ5cLaG9-234">
                    <mxGeometry width="103" height="29" as="geometry">
                        <mxRectangle width="103" height="29" as="alternateBounds"/>
                    </mxGeometry>
                </mxCell>
                <mxCell id="axgaQE1IH_umbZ5cLaG9-236" value="int" style="shape=partialRectangle;html=1;whiteSpace=wrap;connectable=0;overflow=hidden;fillColor=none;top=0;left=0;bottom=0;right=0;pointerEvents=1;" vertex="1" parent="axgaQE1IH_umbZ5cLaG9-234">
                    <mxGeometry x="103" width="104" height="29" as="geometry">
                        <mxRectangle width="104" height="29" as="alternateBounds"/>
                    </mxGeometry>
                </mxCell>
                <mxCell id="axgaQE1IH_umbZ5cLaG9-237" value="primary" style="shape=partialRectangle;html=1;whiteSpace=wrap;connectable=0;overflow=hidden;fillColor=none;top=0;left=0;bottom=0;right=0;pointerEvents=1;" vertex="1" parent="axgaQE1IH_umbZ5cLaG9-234">
                    <mxGeometry x="207" width="103" height="29" as="geometry">
                        <mxRectangle width="103" height="29" as="alternateBounds"/>
                    </mxGeometry>
                </mxCell>
                <mxCell id="axgaQE1IH_umbZ5cLaG9-238" value="" style="shape=partialRectangle;collapsible=0;dropTarget=0;pointerEvents=0;fillColor=none;top=0;left=0;bottom=0;right=0;points=[[0,0.5],[1,0.5]];portConstraint=eastwest;" vertex="1" parent="axgaQE1IH_umbZ5cLaG9-229">
                    <mxGeometry y="88" width="310" height="29" as="geometry"/>
                </mxCell>
                <mxCell id="axgaQE1IH_umbZ5cLaG9-239" value="name" style="shape=partialRectangle;html=1;whiteSpace=wrap;connectable=0;overflow=hidden;fillColor=none;top=0;left=0;bottom=0;right=0;pointerEvents=1;" vertex="1" parent="axgaQE1IH_umbZ5cLaG9-238">
                    <mxGeometry width="103" height="29" as="geometry">
                        <mxRectangle width="103" height="29" as="alternateBounds"/>
                    </mxGeometry>
                </mxCell>
                <mxCell id="axgaQE1IH_umbZ5cLaG9-240" value="string" style="shape=partialRectangle;html=1;whiteSpace=wrap;connectable=0;overflow=hidden;fillColor=none;top=0;left=0;bottom=0;right=0;pointerEvents=1;" vertex="1" parent="axgaQE1IH_umbZ5cLaG9-238">
                    <mxGeometry x="103" width="104" height="29" as="geometry">
                        <mxRectangle width="104" height="29" as="alternateBounds"/>
                    </mxGeometry>
                </mxCell>
                <mxCell id="axgaQE1IH_umbZ5cLaG9-241" value="not null" style="shape=partialRectangle;html=1;whiteSpace=wrap;connectable=0;overflow=hidden;fillColor=none;top=0;left=0;bottom=0;right=0;pointerEvents=1;" vertex="1" parent="axgaQE1IH_umbZ5cLaG9-238">
                    <mxGeometry x="207" width="103" height="29" as="geometry">
                        <mxRectangle width="103" height="29" as="alternateBounds"/>
                    </mxGeometry>
                </mxCell>
                <mxCell id="axgaQE1IH_umbZ5cLaG9-242" value="" style="shape=partialRectangle;collapsible=0;dropTarget=0;pointerEvents=0;fillColor=none;top=0;left=0;bottom=0;right=0;points=[[0,0.5],[1,0.5]];portConstraint=eastwest;" vertex="1" parent="axgaQE1IH_umbZ5cLaG9-229">
                    <mxGeometry y="117" width="310" height="29" as="geometry"/>
                </mxCell>
                <mxCell id="axgaQE1IH_umbZ5cLaG9-243" value="position" style="shape=partialRectangle;html=1;whiteSpace=wrap;connectable=0;overflow=hidden;fillColor=none;top=0;left=0;bottom=0;right=0;pointerEvents=1;" vertex="1" parent="axgaQE1IH_umbZ5cLaG9-242">
                    <mxGeometry width="103" height="29" as="geometry">
                        <mxRectangle width="103" height="29" as="alternateBounds"/>
                    </mxGeometry>
                </mxCell>
                <mxCell id="axgaQE1IH_umbZ5cLaG9-244" value="string" style="shape=partialRectangle;html=1;whiteSpace=wrap;connectable=0;overflow=hidden;fillColor=none;top=0;left=0;bottom=0;right=0;pointerEvents=1;" vertex="1" parent="axgaQE1IH_umbZ5cLaG9-242">
                    <mxGeometry x="103" width="104" height="29" as="geometry">
                        <mxRectangle width="104" height="29" as="alternateBounds"/>
                    </mxGeometry>
                </mxCell>
                <mxCell id="axgaQE1IH_umbZ5cLaG9-245" value="not null" style="shape=partialRectangle;html=1;whiteSpace=wrap;connectable=0;overflow=hidden;fillColor=none;top=0;left=0;bottom=0;right=0;pointerEvents=1;" vertex="1" parent="axgaQE1IH_umbZ5cLaG9-242">
                    <mxGeometry x="207" width="103" height="29" as="geometry">
                        <mxRectangle width="103" height="29" as="alternateBounds"/>
                    </mxGeometry>
                </mxCell>
                <mxCell id="axgaQE1IH_umbZ5cLaG9-246" value="" style="shape=partialRectangle;collapsible=0;dropTarget=0;pointerEvents=0;fillColor=none;top=0;left=0;bottom=0;right=0;points=[[0,0.5],[1,0.5]];portConstraint=eastwest;" vertex="1" parent="axgaQE1IH_umbZ5cLaG9-229">
                    <mxGeometry y="146" width="310" height="30" as="geometry"/>
                </mxCell>
                <mxCell id="axgaQE1IH_umbZ5cLaG9-247" value="department_id" style="shape=partialRectangle;html=1;whiteSpace=wrap;connectable=0;overflow=hidden;fillColor=none;top=0;left=0;bottom=0;right=0;pointerEvents=1;" vertex="1" parent="axgaQE1IH_umbZ5cLaG9-246">
                    <mxGeometry width="103" height="30" as="geometry">
                        <mxRectangle width="103" height="30" as="alternateBounds"/>
                    </mxGeometry>
                </mxCell>
                <mxCell id="axgaQE1IH_umbZ5cLaG9-248" value="int" style="shape=partialRectangle;html=1;whiteSpace=wrap;connectable=0;overflow=hidden;fillColor=none;top=0;left=0;bottom=0;right=0;pointerEvents=1;" vertex="1" parent="axgaQE1IH_umbZ5cLaG9-246">
                    <mxGeometry x="103" width="104" height="30" as="geometry">
                        <mxRectangle width="104" height="30" as="alternateBounds"/>
                    </mxGeometry>
                </mxCell>
                <mxCell id="axgaQE1IH_umbZ5cLaG9-249" value="" style="shape=partialRectangle;html=1;whiteSpace=wrap;connectable=0;overflow=hidden;fillColor=none;top=0;left=0;bottom=0;right=0;pointerEvents=1;" vertex="1" parent="axgaQE1IH_umbZ5cLaG9-246">
                    <mxGeometry x="207" width="103" height="30" as="geometry">
                        <mxRectangle width="103" height="30" as="alternateBounds"/>
                    </mxGeometry>
                </mxCell>
                <mxCell id="axgaQE1IH_umbZ5cLaG9-250" value="" style="shape=partialRectangle;collapsible=0;dropTarget=0;pointerEvents=0;fillColor=none;top=0;left=0;bottom=0;right=0;points=[[0,0.5],[1,0.5]];portConstraint=eastwest;" vertex="1" parent="axgaQE1IH_umbZ5cLaG9-229">
                    <mxGeometry y="176" width="310" height="29" as="geometry"/>
                </mxCell>
                <mxCell id="axgaQE1IH_umbZ5cLaG9-251" value="room" style="shape=partialRectangle;html=1;whiteSpace=wrap;connectable=0;overflow=hidden;fillColor=none;top=0;left=0;bottom=0;right=0;pointerEvents=1;" vertex="1" parent="axgaQE1IH_umbZ5cLaG9-250">
                    <mxGeometry width="103" height="29" as="geometry">
                        <mxRectangle width="103" height="29" as="alternateBounds"/>
                    </mxGeometry>
                </mxCell>
                <mxCell id="axgaQE1IH_umbZ5cLaG9-252" value="string" style="shape=partialRectangle;html=1;whiteSpace=wrap;connectable=0;overflow=hidden;fillColor=none;top=0;left=0;bottom=0;right=0;pointerEvents=1;" vertex="1" parent="axgaQE1IH_umbZ5cLaG9-250">
                    <mxGeometry x="103" width="104" height="29" as="geometry">
                        <mxRectangle width="104" height="29" as="alternateBounds"/>
                    </mxGeometry>
                </mxCell>
                <mxCell id="axgaQE1IH_umbZ5cLaG9-253" value="" style="shape=partialRectangle;html=1;whiteSpace=wrap;connectable=0;overflow=hidden;fillColor=none;top=0;left=0;bottom=0;right=0;pointerEvents=1;" vertex="1" parent="axgaQE1IH_umbZ5cLaG9-250">
                    <mxGeometry x="207" width="103" height="29" as="geometry">
                        <mxRectangle width="103" height="29" as="alternateBounds"/>
                    </mxGeometry>
                </mxCell>
                <mxCell id="axgaQE1IH_umbZ5cLaG9-254" value="" style="shape=partialRectangle;collapsible=0;dropTarget=0;pointerEvents=0;fillColor=none;top=0;left=0;bottom=0;right=0;points=[[0,0.5],[1,0.5]];portConstraint=eastwest;" vertex="1" parent="axgaQE1IH_umbZ5cLaG9-229">
                    <mxGeometry y="205" width="310" height="29" as="geometry"/>
                </mxCell>
                <mxCell id="axgaQE1IH_umbZ5cLaG9-255" value="is_black" style="shape=partialRectangle;html=1;whiteSpace=wrap;connectable=0;overflow=hidden;fillColor=none;top=0;left=0;bottom=0;right=0;pointerEvents=1;" vertex="1" parent="axgaQE1IH_umbZ5cLaG9-254">
                    <mxGeometry width="103" height="29" as="geometry">
                        <mxRectangle width="103" height="29" as="alternateBounds"/>
                    </mxGeometry>
                </mxCell>
                <mxCell id="axgaQE1IH_umbZ5cLaG9-256" value="string" style="shape=partialRectangle;html=1;whiteSpace=wrap;connectable=0;overflow=hidden;fillColor=none;top=0;left=0;bottom=0;right=0;pointerEvents=1;" vertex="1" parent="axgaQE1IH_umbZ5cLaG9-254">
                    <mxGeometry x="103" width="104" height="29" as="geometry">
                        <mxRectangle width="104" height="29" as="alternateBounds"/>
                    </mxGeometry>
                </mxCell>
                <mxCell id="axgaQE1IH_umbZ5cLaG9-257" value="" style="shape=partialRectangle;html=1;whiteSpace=wrap;connectable=0;overflow=hidden;fillColor=none;top=0;left=0;bottom=0;right=0;pointerEvents=1;" vertex="1" parent="axgaQE1IH_umbZ5cLaG9-254">
                    <mxGeometry x="207" width="103" height="29" as="geometry">
                        <mxRectangle width="103" height="29" as="alternateBounds"/>
                    </mxGeometry>
                </mxCell>
                <mxCell id="axgaQE1IH_umbZ5cLaG9-258" value="" style="shape=partialRectangle;collapsible=0;dropTarget=0;pointerEvents=0;fillColor=none;top=0;left=0;bottom=0;right=0;points=[[0,0.5],[1,0.5]];portConstraint=eastwest;" vertex="1" parent="axgaQE1IH_umbZ5cLaG9-229">
                    <mxGeometry y="234" width="310" height="29" as="geometry"/>
                </mxCell>
                <mxCell id="axgaQE1IH_umbZ5cLaG9-259" value="remark" style="shape=partialRectangle;html=1;whiteSpace=wrap;connectable=0;overflow=hidden;fillColor=none;top=0;left=0;bottom=0;right=0;pointerEvents=1;" vertex="1" parent="axgaQE1IH_umbZ5cLaG9-258">
                    <mxGeometry width="103" height="29" as="geometry">
                        <mxRectangle width="103" height="29" as="alternateBounds"/>
                    </mxGeometry>
                </mxCell>
                <mxCell id="axgaQE1IH_umbZ5cLaG9-260" value="string" style="shape=partialRectangle;html=1;whiteSpace=wrap;connectable=0;overflow=hidden;fillColor=none;top=0;left=0;bottom=0;right=0;pointerEvents=1;" vertex="1" parent="axgaQE1IH_umbZ5cLaG9-258">
                    <mxGeometry x="103" width="104" height="29" as="geometry">
                        <mxRectangle width="104" height="29" as="alternateBounds"/>
                    </mxGeometry>
                </mxCell>
                <mxCell id="axgaQE1IH_umbZ5cLaG9-261" value="" style="shape=partialRectangle;html=1;whiteSpace=wrap;connectable=0;overflow=hidden;fillColor=none;top=0;left=0;bottom=0;right=0;pointerEvents=1;" vertex="1" parent="axgaQE1IH_umbZ5cLaG9-258">
                    <mxGeometry x="207" width="103" height="29" as="geometry">
                        <mxRectangle width="103" height="29" as="alternateBounds"/>
                    </mxGeometry>
                </mxCell>
                <mxCell id="axgaQE1IH_umbZ5cLaG9-262" value="" style="shape=partialRectangle;collapsible=0;dropTarget=0;pointerEvents=0;fillColor=none;top=0;left=0;bottom=0;right=0;points=[[0,0.5],[1,0.5]];portConstraint=eastwest;" vertex="1" parent="axgaQE1IH_umbZ5cLaG9-229">
                    <mxGeometry y="263" width="310" height="29" as="geometry"/>
                </mxCell>
                <mxCell id="axgaQE1IH_umbZ5cLaG9-263" value="&lt;span style=&quot;color: rgb(201 , 209 , 217) ; font-family: &amp;#34;menlo&amp;#34; , &amp;#34;monaco&amp;#34; , &amp;#34;courier new&amp;#34; , monospace ; background-color: rgb(13 , 17 , 23)&quot;&gt;created_at&lt;/span&gt;" style="shape=partialRectangle;html=1;whiteSpace=wrap;connectable=0;overflow=hidden;fillColor=none;top=0;left=0;bottom=0;right=0;pointerEvents=1;" vertex="1" parent="axgaQE1IH_umbZ5cLaG9-262">
                    <mxGeometry width="103" height="29" as="geometry">
                        <mxRectangle width="103" height="29" as="alternateBounds"/>
                    </mxGeometry>
                </mxCell>
                <mxCell id="axgaQE1IH_umbZ5cLaG9-264" value="timestamp" style="shape=partialRectangle;html=1;whiteSpace=wrap;connectable=0;overflow=hidden;fillColor=none;top=0;left=0;bottom=0;right=0;pointerEvents=1;" vertex="1" parent="axgaQE1IH_umbZ5cLaG9-262">
                    <mxGeometry x="103" width="104" height="29" as="geometry">
                        <mxRectangle width="104" height="29" as="alternateBounds"/>
                    </mxGeometry>
                </mxCell>
                <mxCell id="axgaQE1IH_umbZ5cLaG9-265" value="not null" style="shape=partialRectangle;html=1;whiteSpace=wrap;connectable=0;overflow=hidden;fillColor=none;top=0;left=0;bottom=0;right=0;pointerEvents=1;" vertex="1" parent="axgaQE1IH_umbZ5cLaG9-262">
                    <mxGeometry x="207" width="103" height="29" as="geometry">
                        <mxRectangle width="103" height="29" as="alternateBounds"/>
                    </mxGeometry>
                </mxCell>
                <mxCell id="axgaQE1IH_umbZ5cLaG9-266" value="" style="shape=partialRectangle;collapsible=0;dropTarget=0;pointerEvents=0;fillColor=none;top=0;left=0;bottom=0;right=0;points=[[0,0.5],[1,0.5]];portConstraint=eastwest;" vertex="1" parent="axgaQE1IH_umbZ5cLaG9-229">
                    <mxGeometry y="292" width="310" height="29" as="geometry"/>
                </mxCell>
                <mxCell id="axgaQE1IH_umbZ5cLaG9-267" value="&lt;span style=&quot;color: rgb(201 , 209 , 217) ; font-family: &amp;#34;menlo&amp;#34; , &amp;#34;monaco&amp;#34; , &amp;#34;courier new&amp;#34; , monospace ; background-color: rgb(13 , 17 , 23)&quot;&gt;updated_at&lt;/span&gt;" style="shape=partialRectangle;html=1;whiteSpace=wrap;connectable=0;overflow=hidden;fillColor=none;top=0;left=0;bottom=0;right=0;pointerEvents=1;" vertex="1" parent="axgaQE1IH_umbZ5cLaG9-266">
                    <mxGeometry width="103" height="29" as="geometry">
                        <mxRectangle width="103" height="29" as="alternateBounds"/>
                    </mxGeometry>
                </mxCell>
                <mxCell id="axgaQE1IH_umbZ5cLaG9-268" value="timestamp" style="shape=partialRectangle;html=1;whiteSpace=wrap;connectable=0;overflow=hidden;fillColor=none;top=0;left=0;bottom=0;right=0;pointerEvents=1;" vertex="1" parent="axgaQE1IH_umbZ5cLaG9-266">
                    <mxGeometry x="103" width="104" height="29" as="geometry">
                        <mxRectangle width="104" height="29" as="alternateBounds"/>
                    </mxGeometry>
                </mxCell>
                <mxCell id="axgaQE1IH_umbZ5cLaG9-269" value="not null" style="shape=partialRectangle;html=1;whiteSpace=wrap;connectable=0;overflow=hidden;fillColor=none;top=0;left=0;bottom=0;right=0;pointerEvents=1;" vertex="1" parent="axgaQE1IH_umbZ5cLaG9-266">
                    <mxGeometry x="207" width="103" height="29" as="geometry">
                        <mxRectangle width="103" height="29" as="alternateBounds"/>
                    </mxGeometry>
                </mxCell>
                <mxCell id="axgaQE1IH_umbZ5cLaG9-272" style="edgeStyle=orthogonalEdgeStyle;html=1;exitX=1;exitY=0.5;exitDx=0;exitDy=0;entryX=0;entryY=0.5;entryDx=0;entryDy=0;startArrow=ERmany;startFill=0;endArrow=none;endFill=0;" edge="1" parent="6VuhM4XT6q3mWw3kNoI1-1" source="axgaQE1IH_umbZ5cLaG9-196" target="axgaQE1IH_umbZ5cLaG9-234">
                    <mxGeometry relative="1" as="geometry">
                        <Array as="points">
                            <mxPoint x="1330" y="728"/>
                            <mxPoint x="1330" y="824"/>
                        </Array>
                    </mxGeometry>
                </mxCell>
                <mxCell id="axgaQE1IH_umbZ5cLaG9-273" value="N対1" style="edgeLabel;html=1;align=center;verticalAlign=middle;resizable=0;points=[];" vertex="1" connectable="0" parent="axgaQE1IH_umbZ5cLaG9-272">
                    <mxGeometry x="-0.0064" relative="1" as="geometry">
                        <mxPoint as="offset"/>
                    </mxGeometry>
                </mxCell>
                <mxCell id="axgaQE1IH_umbZ5cLaG9-275" value="1対1" style="edgeStyle=orthogonalEdgeStyle;html=1;exitX=1;exitY=0.5;exitDx=0;exitDy=0;entryX=0;entryY=0.5;entryDx=0;entryDy=0;startArrow=none;startFill=0;endArrow=none;endFill=0;" edge="1" parent="6VuhM4XT6q3mWw3kNoI1-1" source="axgaQE1IH_umbZ5cLaG9-246" target="axgaQE1IH_umbZ5cLaG9-167">
                    <mxGeometry relative="1" as="geometry"/>
                </mxCell>
                <mxCell id="axgaQE1IH_umbZ5cLaG9-315" value="roles" style="shape=table;startSize=30;container=1;collapsible=0;childLayout=tableLayout;" vertex="1" parent="6VuhM4XT6q3mWw3kNoI1-1">
                    <mxGeometry x="1920" y="1380" width="240" height="140" as="geometry"/>
                </mxCell>
                <mxCell id="axgaQE1IH_umbZ5cLaG9-316" value="" style="shape=partialRectangle;collapsible=0;dropTarget=0;pointerEvents=0;fillColor=none;top=0;left=0;bottom=0;right=0;points=[[0,0.5],[1,0.5]];portConstraint=eastwest;" vertex="1" parent="axgaQE1IH_umbZ5cLaG9-315">
                    <mxGeometry y="30" width="240" height="22" as="geometry"/>
                </mxCell>
                <mxCell id="axgaQE1IH_umbZ5cLaG9-317" value="カラム" style="shape=partialRectangle;html=1;whiteSpace=wrap;connectable=0;overflow=hidden;fillColor=none;top=0;left=0;bottom=0;right=0;pointerEvents=1;" vertex="1" parent="axgaQE1IH_umbZ5cLaG9-316">
                    <mxGeometry width="81" height="22" as="geometry">
                        <mxRectangle width="81" height="22" as="alternateBounds"/>
                    </mxGeometry>
                </mxCell>
                <mxCell id="axgaQE1IH_umbZ5cLaG9-318" value="型" style="shape=partialRectangle;html=1;whiteSpace=wrap;connectable=0;overflow=hidden;fillColor=none;top=0;left=0;bottom=0;right=0;pointerEvents=1;" vertex="1" parent="axgaQE1IH_umbZ5cLaG9-316">
                    <mxGeometry x="81" width="78" height="22" as="geometry">
                        <mxRectangle width="78" height="22" as="alternateBounds"/>
                    </mxGeometry>
                </mxCell>
                <mxCell id="axgaQE1IH_umbZ5cLaG9-319" value="制約" style="shape=partialRectangle;html=1;whiteSpace=wrap;connectable=0;overflow=hidden;fillColor=none;top=0;left=0;bottom=0;right=0;pointerEvents=1;" vertex="1" parent="axgaQE1IH_umbZ5cLaG9-316">
                    <mxGeometry x="159" width="81" height="22" as="geometry">
                        <mxRectangle width="81" height="22" as="alternateBounds"/>
                    </mxGeometry>
                </mxCell>
                <mxCell id="axgaQE1IH_umbZ5cLaG9-320" value="" style="shape=partialRectangle;collapsible=0;dropTarget=0;pointerEvents=0;fillColor=none;top=0;left=0;bottom=0;right=0;points=[[0,0.5],[1,0.5]];portConstraint=eastwest;" vertex="1" parent="axgaQE1IH_umbZ5cLaG9-315">
                    <mxGeometry y="52" width="240" height="22" as="geometry"/>
                </mxCell>
                <mxCell id="axgaQE1IH_umbZ5cLaG9-321" value="id" style="shape=partialRectangle;html=1;whiteSpace=wrap;connectable=0;overflow=hidden;fillColor=none;top=0;left=0;bottom=0;right=0;pointerEvents=1;" vertex="1" parent="axgaQE1IH_umbZ5cLaG9-320">
                    <mxGeometry width="81" height="22" as="geometry">
                        <mxRectangle width="81" height="22" as="alternateBounds"/>
                    </mxGeometry>
                </mxCell>
                <mxCell id="axgaQE1IH_umbZ5cLaG9-322" value="int" style="shape=partialRectangle;html=1;whiteSpace=wrap;connectable=0;overflow=hidden;fillColor=none;top=0;left=0;bottom=0;right=0;pointerEvents=1;" vertex="1" parent="axgaQE1IH_umbZ5cLaG9-320">
                    <mxGeometry x="81" width="78" height="22" as="geometry">
                        <mxRectangle width="78" height="22" as="alternateBounds"/>
                    </mxGeometry>
                </mxCell>
                <mxCell id="axgaQE1IH_umbZ5cLaG9-323" value="primary" style="shape=partialRectangle;html=1;whiteSpace=wrap;connectable=0;overflow=hidden;fillColor=none;top=0;left=0;bottom=0;right=0;pointerEvents=1;" vertex="1" parent="axgaQE1IH_umbZ5cLaG9-320">
                    <mxGeometry x="159" width="81" height="22" as="geometry">
                        <mxRectangle width="81" height="22" as="alternateBounds"/>
                    </mxGeometry>
                </mxCell>
                <mxCell id="axgaQE1IH_umbZ5cLaG9-324" value="" style="shape=partialRectangle;collapsible=0;dropTarget=0;pointerEvents=0;fillColor=none;top=0;left=0;bottom=0;right=0;points=[[0,0.5],[1,0.5]];portConstraint=eastwest;" vertex="1" parent="axgaQE1IH_umbZ5cLaG9-315">
                    <mxGeometry y="74" width="240" height="22" as="geometry"/>
                </mxCell>
                <mxCell id="axgaQE1IH_umbZ5cLaG9-325" value="name" style="shape=partialRectangle;html=1;whiteSpace=wrap;connectable=0;overflow=hidden;fillColor=none;top=0;left=0;bottom=0;right=0;pointerEvents=1;" vertex="1" parent="axgaQE1IH_umbZ5cLaG9-324">
                    <mxGeometry width="81" height="22" as="geometry">
                        <mxRectangle width="81" height="22" as="alternateBounds"/>
                    </mxGeometry>
                </mxCell>
                <mxCell id="axgaQE1IH_umbZ5cLaG9-326" value="string" style="shape=partialRectangle;html=1;whiteSpace=wrap;connectable=0;overflow=hidden;fillColor=none;top=0;left=0;bottom=0;right=0;pointerEvents=1;" vertex="1" parent="axgaQE1IH_umbZ5cLaG9-324">
                    <mxGeometry x="81" width="78" height="22" as="geometry">
                        <mxRectangle width="78" height="22" as="alternateBounds"/>
                    </mxGeometry>
                </mxCell>
                <mxCell id="axgaQE1IH_umbZ5cLaG9-327" value="not null" style="shape=partialRectangle;html=1;whiteSpace=wrap;connectable=0;overflow=hidden;fillColor=none;top=0;left=0;bottom=0;right=0;pointerEvents=1;" vertex="1" parent="axgaQE1IH_umbZ5cLaG9-324">
                    <mxGeometry x="159" width="81" height="22" as="geometry">
                        <mxRectangle width="81" height="22" as="alternateBounds"/>
                    </mxGeometry>
                </mxCell>
                <mxCell id="axgaQE1IH_umbZ5cLaG9-328" value="" style="shape=partialRectangle;collapsible=0;dropTarget=0;pointerEvents=0;fillColor=none;top=0;left=0;bottom=0;right=0;points=[[0,0.5],[1,0.5]];portConstraint=eastwest;" vertex="1" parent="axgaQE1IH_umbZ5cLaG9-315">
                    <mxGeometry y="96" width="240" height="22" as="geometry"/>
                </mxCell>
                <mxCell id="axgaQE1IH_umbZ5cLaG9-329" value="&lt;span style=&quot;color: rgb(201 , 209 , 217) ; font-family: &amp;#34;menlo&amp;#34; , &amp;#34;monaco&amp;#34; , &amp;#34;courier new&amp;#34; , monospace ; background-color: rgb(13 , 17 , 23)&quot;&gt;created_at&lt;/span&gt;" style="shape=partialRectangle;html=1;whiteSpace=wrap;connectable=0;overflow=hidden;fillColor=none;top=0;left=0;bottom=0;right=0;pointerEvents=1;" vertex="1" parent="axgaQE1IH_umbZ5cLaG9-328">
                    <mxGeometry width="81" height="22" as="geometry">
                        <mxRectangle width="81" height="22" as="alternateBounds"/>
                    </mxGeometry>
                </mxCell>
                <mxCell id="axgaQE1IH_umbZ5cLaG9-330" value="timestamp" style="shape=partialRectangle;html=1;whiteSpace=wrap;connectable=0;overflow=hidden;fillColor=none;top=0;left=0;bottom=0;right=0;pointerEvents=1;" vertex="1" parent="axgaQE1IH_umbZ5cLaG9-328">
                    <mxGeometry x="81" width="78" height="22" as="geometry">
                        <mxRectangle width="78" height="22" as="alternateBounds"/>
                    </mxGeometry>
                </mxCell>
                <mxCell id="axgaQE1IH_umbZ5cLaG9-331" value="not null" style="shape=partialRectangle;html=1;whiteSpace=wrap;connectable=0;overflow=hidden;fillColor=none;top=0;left=0;bottom=0;right=0;pointerEvents=1;" vertex="1" parent="axgaQE1IH_umbZ5cLaG9-328">
                    <mxGeometry x="159" width="81" height="22" as="geometry">
                        <mxRectangle width="81" height="22" as="alternateBounds"/>
                    </mxGeometry>
                </mxCell>
                <mxCell id="axgaQE1IH_umbZ5cLaG9-332" value="" style="shape=partialRectangle;collapsible=0;dropTarget=0;pointerEvents=0;fillColor=none;top=0;left=0;bottom=0;right=0;points=[[0,0.5],[1,0.5]];portConstraint=eastwest;" vertex="1" parent="axgaQE1IH_umbZ5cLaG9-315">
                    <mxGeometry y="118" width="240" height="22" as="geometry"/>
                </mxCell>
                <mxCell id="axgaQE1IH_umbZ5cLaG9-333" value="&lt;span style=&quot;color: rgb(201 , 209 , 217) ; font-family: &amp;#34;menlo&amp;#34; , &amp;#34;monaco&amp;#34; , &amp;#34;courier new&amp;#34; , monospace ; background-color: rgb(13 , 17 , 23)&quot;&gt;updated_at&lt;/span&gt;" style="shape=partialRectangle;html=1;whiteSpace=wrap;connectable=0;overflow=hidden;fillColor=none;top=0;left=0;bottom=0;right=0;pointerEvents=1;" vertex="1" parent="axgaQE1IH_umbZ5cLaG9-332">
                    <mxGeometry width="81" height="22" as="geometry">
                        <mxRectangle width="81" height="22" as="alternateBounds"/>
                    </mxGeometry>
                </mxCell>
                <mxCell id="axgaQE1IH_umbZ5cLaG9-334" value="timestamp" style="shape=partialRectangle;html=1;whiteSpace=wrap;connectable=0;overflow=hidden;fillColor=none;top=0;left=0;bottom=0;right=0;pointerEvents=1;" vertex="1" parent="axgaQE1IH_umbZ5cLaG9-332">
                    <mxGeometry x="81" width="78" height="22" as="geometry">
                        <mxRectangle width="78" height="22" as="alternateBounds"/>
                    </mxGeometry>
                </mxCell>
                <mxCell id="axgaQE1IH_umbZ5cLaG9-335" value="not null" style="shape=partialRectangle;html=1;whiteSpace=wrap;connectable=0;overflow=hidden;fillColor=none;top=0;left=0;bottom=0;right=0;pointerEvents=1;" vertex="1" parent="axgaQE1IH_umbZ5cLaG9-332">
                    <mxGeometry x="159" width="81" height="22" as="geometry">
                        <mxRectangle width="81" height="22" as="alternateBounds"/>
                    </mxGeometry>
                </mxCell>
                <mxCell id="axgaQE1IH_umbZ5cLaG9-337" style="edgeStyle=orthogonalEdgeStyle;html=1;exitX=1;exitY=0.5;exitDx=0;exitDy=0;entryX=0;entryY=0.5;entryDx=0;entryDy=0;startArrow=none;startFill=0;endArrow=none;endFill=0;" edge="1" parent="6VuhM4XT6q3mWw3kNoI1-1" source="axgaQE1IH_umbZ5cLaG9-143" target="axgaQE1IH_umbZ5cLaG9-320">
                    <mxGeometry relative="1" as="geometry"/>
                </mxCell>
                <mxCell id="axgaQE1IH_umbZ5cLaG9-338" value="1対1" style="edgeLabel;html=1;align=center;verticalAlign=middle;resizable=0;points=[];" vertex="1" connectable="0" parent="axgaQE1IH_umbZ5cLaG9-337">
                    <mxGeometry x="-0.0489" relative="1" as="geometry">
                        <mxPoint as="offset"/>
                    </mxGeometry>
                </mxCell>
                <mxCell id="axgaQE1IH_umbZ5cLaG9-369" value="purchase_orders" style="shape=table;startSize=30;container=1;collapsible=0;childLayout=tableLayout;" vertex="1" parent="6VuhM4XT6q3mWw3kNoI1-1">
                    <mxGeometry x="1020" y="1280" width="240" height="310" as="geometry"/>
                </mxCell>
                <mxCell id="axgaQE1IH_umbZ5cLaG9-370" value="" style="shape=partialRectangle;collapsible=0;dropTarget=0;pointerEvents=0;fillColor=none;top=0;left=0;bottom=0;right=0;points=[[0,0.5],[1,0.5]];portConstraint=eastwest;" vertex="1" parent="axgaQE1IH_umbZ5cLaG9-369">
                    <mxGeometry y="30" width="240" height="40" as="geometry"/>
                </mxCell>
                <mxCell id="axgaQE1IH_umbZ5cLaG9-371" value="カラム" style="shape=partialRectangle;html=1;whiteSpace=wrap;connectable=0;overflow=hidden;fillColor=none;top=0;left=0;bottom=0;right=0;pointerEvents=1;" vertex="1" parent="axgaQE1IH_umbZ5cLaG9-370">
                    <mxGeometry width="80" height="40" as="geometry">
                        <mxRectangle width="80" height="40" as="alternateBounds"/>
                    </mxGeometry>
                </mxCell>
                <mxCell id="axgaQE1IH_umbZ5cLaG9-372" value="型" style="shape=partialRectangle;html=1;whiteSpace=wrap;connectable=0;overflow=hidden;fillColor=none;top=0;left=0;bottom=0;right=0;pointerEvents=1;" vertex="1" parent="axgaQE1IH_umbZ5cLaG9-370">
                    <mxGeometry x="80" width="80" height="40" as="geometry">
                        <mxRectangle width="80" height="40" as="alternateBounds"/>
                    </mxGeometry>
                </mxCell>
                <mxCell id="axgaQE1IH_umbZ5cLaG9-373" value="制約" style="shape=partialRectangle;html=1;whiteSpace=wrap;connectable=0;overflow=hidden;fillColor=none;top=0;left=0;bottom=0;right=0;pointerEvents=1;" vertex="1" parent="axgaQE1IH_umbZ5cLaG9-370">
                    <mxGeometry x="160" width="80" height="40" as="geometry">
                        <mxRectangle width="80" height="40" as="alternateBounds"/>
                    </mxGeometry>
                </mxCell>
                <mxCell id="axgaQE1IH_umbZ5cLaG9-374" value="" style="shape=partialRectangle;collapsible=0;dropTarget=0;pointerEvents=0;fillColor=none;top=0;left=0;bottom=0;right=0;points=[[0,0.5],[1,0.5]];portConstraint=eastwest;" vertex="1" parent="axgaQE1IH_umbZ5cLaG9-369">
                    <mxGeometry y="70" width="240" height="40" as="geometry"/>
                </mxCell>
                <mxCell id="axgaQE1IH_umbZ5cLaG9-375" value="id" style="shape=partialRectangle;html=1;whiteSpace=wrap;connectable=0;overflow=hidden;fillColor=none;top=0;left=0;bottom=0;right=0;pointerEvents=1;" vertex="1" parent="axgaQE1IH_umbZ5cLaG9-374">
                    <mxGeometry width="80" height="40" as="geometry">
                        <mxRectangle width="80" height="40" as="alternateBounds"/>
                    </mxGeometry>
                </mxCell>
                <mxCell id="axgaQE1IH_umbZ5cLaG9-376" value="" style="shape=partialRectangle;html=1;whiteSpace=wrap;connectable=0;overflow=hidden;fillColor=none;top=0;left=0;bottom=0;right=0;pointerEvents=1;" vertex="1" parent="axgaQE1IH_umbZ5cLaG9-374">
                    <mxGeometry x="80" width="80" height="40" as="geometry">
                        <mxRectangle width="80" height="40" as="alternateBounds"/>
                    </mxGeometry>
                </mxCell>
                <mxCell id="axgaQE1IH_umbZ5cLaG9-377" value="" style="shape=partialRectangle;html=1;whiteSpace=wrap;connectable=0;overflow=hidden;fillColor=none;top=0;left=0;bottom=0;right=0;pointerEvents=1;" vertex="1" parent="axgaQE1IH_umbZ5cLaG9-374">
                    <mxGeometry x="160" width="80" height="40" as="geometry">
                        <mxRectangle width="80" height="40" as="alternateBounds"/>
                    </mxGeometry>
                </mxCell>
                <mxCell id="axgaQE1IH_umbZ5cLaG9-378" value="" style="shape=partialRectangle;collapsible=0;dropTarget=0;pointerEvents=0;fillColor=none;top=0;left=0;bottom=0;right=0;points=[[0,0.5],[1,0.5]];portConstraint=eastwest;" vertex="1" parent="axgaQE1IH_umbZ5cLaG9-369">
                    <mxGeometry y="110" width="240" height="40" as="geometry"/>
                </mxCell>
                <mxCell id="axgaQE1IH_umbZ5cLaG9-379" value="" style="shape=partialRectangle;html=1;whiteSpace=wrap;connectable=0;overflow=hidden;fillColor=none;top=0;left=0;bottom=0;right=0;pointerEvents=1;" vertex="1" parent="axgaQE1IH_umbZ5cLaG9-378">
                    <mxGeometry width="80" height="40" as="geometry">
                        <mxRectangle width="80" height="40" as="alternateBounds"/>
                    </mxGeometry>
                </mxCell>
                <mxCell id="axgaQE1IH_umbZ5cLaG9-380" value="" style="shape=partialRectangle;html=1;whiteSpace=wrap;connectable=0;overflow=hidden;fillColor=none;top=0;left=0;bottom=0;right=0;pointerEvents=1;" vertex="1" parent="axgaQE1IH_umbZ5cLaG9-378">
                    <mxGeometry x="80" width="80" height="40" as="geometry">
                        <mxRectangle width="80" height="40" as="alternateBounds"/>
                    </mxGeometry>
                </mxCell>
                <mxCell id="axgaQE1IH_umbZ5cLaG9-381" value="" style="shape=partialRectangle;html=1;whiteSpace=wrap;connectable=0;overflow=hidden;fillColor=none;top=0;left=0;bottom=0;right=0;pointerEvents=1;" vertex="1" parent="axgaQE1IH_umbZ5cLaG9-378">
                    <mxGeometry x="160" width="80" height="40" as="geometry">
                        <mxRectangle width="80" height="40" as="alternateBounds"/>
                    </mxGeometry>
                </mxCell>
                <mxCell id="axgaQE1IH_umbZ5cLaG9-382" value="" style="shape=partialRectangle;collapsible=0;dropTarget=0;pointerEvents=0;fillColor=none;top=0;left=0;bottom=0;right=0;points=[[0,0.5],[1,0.5]];portConstraint=eastwest;" vertex="1" parent="axgaQE1IH_umbZ5cLaG9-369">
                    <mxGeometry y="150" width="240" height="40" as="geometry"/>
                </mxCell>
                <mxCell id="axgaQE1IH_umbZ5cLaG9-383" value="" style="shape=partialRectangle;html=1;whiteSpace=wrap;connectable=0;overflow=hidden;fillColor=none;top=0;left=0;bottom=0;right=0;pointerEvents=1;" vertex="1" parent="axgaQE1IH_umbZ5cLaG9-382">
                    <mxGeometry width="80" height="40" as="geometry">
                        <mxRectangle width="80" height="40" as="alternateBounds"/>
                    </mxGeometry>
                </mxCell>
                <mxCell id="axgaQE1IH_umbZ5cLaG9-384" value="" style="shape=partialRectangle;html=1;whiteSpace=wrap;connectable=0;overflow=hidden;fillColor=none;top=0;left=0;bottom=0;right=0;pointerEvents=1;" vertex="1" parent="axgaQE1IH_umbZ5cLaG9-382">
                    <mxGeometry x="80" width="80" height="40" as="geometry">
                        <mxRectangle width="80" height="40" as="alternateBounds"/>
                    </mxGeometry>
                </mxCell>
                <mxCell id="axgaQE1IH_umbZ5cLaG9-385" value="" style="shape=partialRectangle;html=1;whiteSpace=wrap;connectable=0;overflow=hidden;fillColor=none;top=0;left=0;bottom=0;right=0;pointerEvents=1;" vertex="1" parent="axgaQE1IH_umbZ5cLaG9-382">
                    <mxGeometry x="160" width="80" height="40" as="geometry">
                        <mxRectangle width="80" height="40" as="alternateBounds"/>
                    </mxGeometry>
                </mxCell>
                <mxCell id="axgaQE1IH_umbZ5cLaG9-386" value="" style="shape=partialRectangle;collapsible=0;dropTarget=0;pointerEvents=0;fillColor=none;top=0;left=0;bottom=0;right=0;points=[[0,0.5],[1,0.5]];portConstraint=eastwest;" vertex="1" parent="axgaQE1IH_umbZ5cLaG9-369">
                    <mxGeometry y="190" width="240" height="40" as="geometry"/>
                </mxCell>
                <mxCell id="axgaQE1IH_umbZ5cLaG9-387" value="" style="shape=partialRectangle;html=1;whiteSpace=wrap;connectable=0;overflow=hidden;fillColor=none;top=0;left=0;bottom=0;right=0;pointerEvents=1;" vertex="1" parent="axgaQE1IH_umbZ5cLaG9-386">
                    <mxGeometry width="80" height="40" as="geometry">
                        <mxRectangle width="80" height="40" as="alternateBounds"/>
                    </mxGeometry>
                </mxCell>
                <mxCell id="axgaQE1IH_umbZ5cLaG9-388" value="" style="shape=partialRectangle;html=1;whiteSpace=wrap;connectable=0;overflow=hidden;fillColor=none;top=0;left=0;bottom=0;right=0;pointerEvents=1;" vertex="1" parent="axgaQE1IH_umbZ5cLaG9-386">
                    <mxGeometry x="80" width="80" height="40" as="geometry">
                        <mxRectangle width="80" height="40" as="alternateBounds"/>
                    </mxGeometry>
                </mxCell>
                <mxCell id="axgaQE1IH_umbZ5cLaG9-389" value="" style="shape=partialRectangle;html=1;whiteSpace=wrap;connectable=0;overflow=hidden;fillColor=none;top=0;left=0;bottom=0;right=0;pointerEvents=1;" vertex="1" parent="axgaQE1IH_umbZ5cLaG9-386">
                    <mxGeometry x="160" width="80" height="40" as="geometry">
                        <mxRectangle width="80" height="40" as="alternateBounds"/>
                    </mxGeometry>
                </mxCell>
                <mxCell id="axgaQE1IH_umbZ5cLaG9-390" value="" style="shape=partialRectangle;collapsible=0;dropTarget=0;pointerEvents=0;fillColor=none;top=0;left=0;bottom=0;right=0;points=[[0,0.5],[1,0.5]];portConstraint=eastwest;" vertex="1" parent="axgaQE1IH_umbZ5cLaG9-369">
                    <mxGeometry y="230" width="240" height="40" as="geometry"/>
                </mxCell>
                <mxCell id="axgaQE1IH_umbZ5cLaG9-391" value="" style="shape=partialRectangle;html=1;whiteSpace=wrap;connectable=0;overflow=hidden;fillColor=none;top=0;left=0;bottom=0;right=0;pointerEvents=1;" vertex="1" parent="axgaQE1IH_umbZ5cLaG9-390">
                    <mxGeometry width="80" height="40" as="geometry">
                        <mxRectangle width="80" height="40" as="alternateBounds"/>
                    </mxGeometry>
                </mxCell>
                <mxCell id="axgaQE1IH_umbZ5cLaG9-392" value="" style="shape=partialRectangle;html=1;whiteSpace=wrap;connectable=0;overflow=hidden;fillColor=none;top=0;left=0;bottom=0;right=0;pointerEvents=1;" vertex="1" parent="axgaQE1IH_umbZ5cLaG9-390">
                    <mxGeometry x="80" width="80" height="40" as="geometry">
                        <mxRectangle width="80" height="40" as="alternateBounds"/>
                    </mxGeometry>
                </mxCell>
                <mxCell id="axgaQE1IH_umbZ5cLaG9-393" value="" style="shape=partialRectangle;html=1;whiteSpace=wrap;connectable=0;overflow=hidden;fillColor=none;top=0;left=0;bottom=0;right=0;pointerEvents=1;" vertex="1" parent="axgaQE1IH_umbZ5cLaG9-390">
                    <mxGeometry x="160" width="80" height="40" as="geometry">
                        <mxRectangle width="80" height="40" as="alternateBounds"/>
                    </mxGeometry>
                </mxCell>
                <mxCell id="axgaQE1IH_umbZ5cLaG9-394" value="" style="shape=partialRectangle;collapsible=0;dropTarget=0;pointerEvents=0;fillColor=none;top=0;left=0;bottom=0;right=0;points=[[0,0.5],[1,0.5]];portConstraint=eastwest;" vertex="1" parent="axgaQE1IH_umbZ5cLaG9-369">
                    <mxGeometry y="270" width="240" height="40" as="geometry"/>
                </mxCell>
                <mxCell id="axgaQE1IH_umbZ5cLaG9-395" value="" style="shape=partialRectangle;html=1;whiteSpace=wrap;connectable=0;overflow=hidden;fillColor=none;top=0;left=0;bottom=0;right=0;pointerEvents=1;" vertex="1" parent="axgaQE1IH_umbZ5cLaG9-394">
                    <mxGeometry width="80" height="40" as="geometry">
                        <mxRectangle width="80" height="40" as="alternateBounds"/>
                    </mxGeometry>
                </mxCell>
                <mxCell id="axgaQE1IH_umbZ5cLaG9-396" value="" style="shape=partialRectangle;html=1;whiteSpace=wrap;connectable=0;overflow=hidden;fillColor=none;top=0;left=0;bottom=0;right=0;pointerEvents=1;" vertex="1" parent="axgaQE1IH_umbZ5cLaG9-394">
                    <mxGeometry x="80" width="80" height="40" as="geometry">
                        <mxRectangle width="80" height="40" as="alternateBounds"/>
                    </mxGeometry>
                </mxCell>
                <mxCell id="axgaQE1IH_umbZ5cLaG9-397" value="" style="shape=partialRectangle;html=1;whiteSpace=wrap;connectable=0;overflow=hidden;fillColor=none;top=0;left=0;bottom=0;right=0;pointerEvents=1;" vertex="1" parent="axgaQE1IH_umbZ5cLaG9-394">
                    <mxGeometry x="160" width="80" height="40" as="geometry">
                        <mxRectangle width="80" height="40" as="alternateBounds"/>
                    </mxGeometry>
                </mxCell>
            </root>
        </mxGraphModel>
    </diagram>
</mxfile>
